<?xml version="1.0" encoding="UTF-8" standalone="no"?>
<!-- Created with Inkscape (http://www.inkscape.org/) -->

<svg
   xmlns:dc="http://purl.org/dc/elements/1.1/"
   xmlns:cc="http://creativecommons.org/ns#"
   xmlns:rdf="http://www.w3.org/1999/02/22-rdf-syntax-ns#"
   xmlns:svg="http://www.w3.org/2000/svg"
   xmlns="http://www.w3.org/2000/svg"
   xmlns:sodipodi="http://sodipodi.sourceforge.net/DTD/sodipodi-0.dtd"
   xmlns:inkscape="http://www.inkscape.org/namespaces/inkscape"
   width="210mm"
   height="297mm"
   viewBox="0 0 210 297"
   version="1.1"
   id="svg847"
   inkscape:version="0.92.4 (33fec40, 2019-01-16)"
   sodipodi:docname="time.svg">
  <defs
     id="defs841" />
  <sodipodi:namedview
     id="base"
     pagecolor="#ffffff"
     bordercolor="#666666"
     borderopacity="1.0"
     inkscape:pageopacity="0.0"
     inkscape:pageshadow="2"
     inkscape:zoom="1.42"
     inkscape:cx="433.35809"
     inkscape:cy="79.206142"
     inkscape:document-units="mm"
     inkscape:current-layer="layer1"
     showgrid="false"
     inkscape:window-width="1855"
     inkscape:window-height="1176"
     inkscape:window-x="65"
     inkscape:window-y="24"
     inkscape:window-maximized="1" />
  <metadata
     id="metadata844">
    <rdf:RDF>
      <cc:Work
         rdf:about="">
        <dc:format>image/svg+xml</dc:format>
        <dc:type
           rdf:resource="http://purl.org/dc/dcmitype/StillImage" />
        <dc:title />
      </cc:Work>
    </rdf:RDF>
  </metadata>
  <g
     inkscape:label="Layer 1"
     inkscape:groupmode="layer"
     id="layer1">
    <path
       style="color:#000000;font-style:normal;font-variant:normal;font-weight:normal;font-stretch:normal;font-size:medium;line-height:normal;font-family:sans-serif;font-variant-ligatures:normal;font-variant-position:normal;font-variant-caps:normal;font-variant-numeric:normal;font-variant-alternates:normal;font-feature-settings:normal;text-indent:0;text-align:start;text-decoration:none;text-decoration-line:none;text-decoration-style:solid;text-decoration-color:#000000;letter-spacing:normal;word-spacing:normal;text-transform:none;writing-mode:lr-tb;direction:ltr;text-orientation:mixed;dominant-baseline:auto;baseline-shift:baseline;text-anchor:start;white-space:normal;shape-padding:0;clip-rule:nonzero;display:inline;overflow:visible;visibility:visible;opacity:1;isolation:auto;mix-blend-mode:normal;color-interpolation:sRGB;color-interpolation-filters:linearRGB;solid-color:#000000;solid-opacity:1;vector-effect:none;fill-opacity:1;fill-rule:nonzero;stroke:none;stroke-width:0.45912993;stroke-linecap:butt;stroke-linejoin:miter;stroke-miterlimit:4;stroke-dasharray:none;stroke-dashoffset:0;stroke-opacity:1;color-rendering:auto;image-rendering:auto;shape-rendering:auto;text-rendering:auto;enable-background:accumulate"
       d="m 10.330078,273.53711 c -0.4138649,-0.18705 -0.8514749,-0.0442 -1.0996092,0.24414 -0.2481344,0.28833 -0.3252851,0.74196 -0.078125,1.12305 0.7066155,1.08949 1.7959862,2.29275 3.4453122,3.55078 l 0.0059,0.004 0.0039,0.004 c 0.290641,0.2003 0.6011,0.3996 0.933594,0.59961 l 0.05469,0.0332 h 0.236328 l 0.05469,-0.0352 c 0.317537,-0.19571 0.621244,-0.38669 0.908203,-0.58008 l 0.0039,-0.004 0.0059,-0.004 c 0.959103,-0.73085 1.729401,-1.44491 2.345703,-2.12891 0.286235,-0.31768 0.303083,-0.75094 0.132812,-1.07227 -0.17027,-0.32132 -0.539422,-0.54988 -0.962891,-0.48828 -1.97568,0.2875 -4.315223,-0.48906 -5.990234,-1.24609 z m -0.189453,0.41797 c 1.712273,0.77387 4.10583,1.59269 6.246094,1.28125 0.233054,-0.0339 0.400484,0.0806 0.490234,0.25 0.08975,0.16937 0.09145,0.37558 -0.06641,0.55078 -0.595204,0.66058 -1.344393,1.35493 -2.283203,2.07031 -0.256424,0.17259 -0.530217,0.34345 -0.814453,0.51953 -0.294889,-0.17915 -0.575967,-0.3582 -0.835938,-0.53711 -1.614616,-1.23155 -2.664555,-2.39736 -3.3378905,-3.43554 -0.1383277,-0.21329 -0.09249,-0.42136 0.039063,-0.57422 0.1315521,-0.15287 0.3308083,-0.22972 0.5625,-0.125 z"
       id="path2"
       inkscape:connector-curvature="0" />
    <path
       style="color:#000000;font-style:normal;font-variant:normal;font-weight:normal;font-stretch:normal;font-size:medium;line-height:normal;font-family:sans-serif;font-variant-ligatures:normal;font-variant-position:normal;font-variant-caps:normal;font-variant-numeric:normal;font-variant-alternates:normal;font-feature-settings:normal;text-indent:0;text-align:start;text-decoration:none;text-decoration-line:none;text-decoration-style:solid;text-decoration-color:#000000;letter-spacing:normal;word-spacing:normal;text-transform:none;writing-mode:lr-tb;direction:ltr;text-orientation:mixed;dominant-baseline:auto;baseline-shift:baseline;text-anchor:start;white-space:normal;shape-padding:0;clip-rule:nonzero;display:inline;overflow:visible;visibility:visible;opacity:1;isolation:auto;mix-blend-mode:normal;color-interpolation:sRGB;color-interpolation-filters:linearRGB;solid-color:#000000;solid-opacity:1;vector-effect:none;fill-opacity:1;fill-rule:nonzero;stroke:none;stroke-width:0.45912993;stroke-linecap:butt;stroke-linejoin:miter;stroke-miterlimit:4;stroke-dasharray:none;stroke-dashoffset:0;stroke-opacity:1;color-rendering:auto;image-rendering:auto;shape-rendering:auto;text-rendering:auto;enable-background:accumulate"
       d="m 13.707031,280.81445 c -0.564093,0 -1.025394,0.4613 -1.02539,1.02539 3e-6,0.56409 0.461302,1.02735 1.02539,1.02735 0.564088,0 1.025388,-0.46326 1.025391,-1.02735 4e-6,-0.56409 -0.461298,-1.02539 -1.025391,-1.02539 z m 0,0.45899 c 0.31596,0 0.566409,0.25044 0.566407,0.5664 -2e-6,0.31596 -0.25045,0.56836 -0.566407,0.56836 -0.315957,0 -0.566404,-0.2524 -0.566406,-0.56836 -2e-6,-0.31596 0.250446,-0.5664 0.566406,-0.5664 z"
       id="circle4"
       inkscape:connector-curvature="0" />
    <path
       style="color:#000000;font-style:normal;font-variant:normal;font-weight:normal;font-stretch:normal;font-size:medium;line-height:normal;font-family:sans-serif;font-variant-ligatures:normal;font-variant-position:normal;font-variant-caps:normal;font-variant-numeric:normal;font-variant-alternates:normal;font-feature-settings:normal;text-indent:0;text-align:start;text-decoration:none;text-decoration-line:none;text-decoration-style:solid;text-decoration-color:#000000;letter-spacing:normal;word-spacing:normal;text-transform:none;writing-mode:lr-tb;direction:ltr;text-orientation:mixed;dominant-baseline:auto;baseline-shift:baseline;text-anchor:start;white-space:normal;shape-padding:0;clip-rule:nonzero;display:inline;overflow:visible;visibility:visible;opacity:1;isolation:auto;mix-blend-mode:normal;color-interpolation:sRGB;color-interpolation-filters:linearRGB;solid-color:#000000;solid-opacity:1;vector-effect:none;fill-opacity:1;fill-rule:nonzero;stroke:none;stroke-width:0.45912993;stroke-linecap:butt;stroke-linejoin:miter;stroke-miterlimit:4;stroke-dasharray:none;stroke-dashoffset:0;stroke-opacity:1;color-rendering:auto;image-rendering:auto;shape-rendering:auto;text-rendering:auto;enable-background:accumulate"
       d="m 13.712891,283.24414 c -0.828103,0 -1.503903,0.67776 -1.503907,1.50586 4e-6,0.8281 0.675804,1.50391 1.503907,1.50391 0.828102,0 1.503902,-0.67581 1.503906,-1.50391 -4e-6,-0.8281 -0.675804,-1.50586 -1.503906,-1.50586 z m 0,0.45898 c 0.579971,0 1.044919,0.46691 1.044921,1.04688 -2e-6,0.57997 -0.46495,1.04492 -1.044921,1.04492 -0.579972,0 -1.04492,-0.46495 -1.044922,-1.04492 2e-6,-0.57997 0.46495,-1.04688 1.044922,-1.04688 z"
       id="circle6"
       inkscape:connector-curvature="0" />
    <path
       style="color:#000000;font-style:normal;font-variant:normal;font-weight:normal;font-stretch:normal;font-size:medium;line-height:normal;font-family:sans-serif;font-variant-ligatures:normal;font-variant-position:normal;font-variant-caps:normal;font-variant-numeric:normal;font-variant-alternates:normal;font-feature-settings:normal;text-indent:0;text-align:start;text-decoration:none;text-decoration-line:none;text-decoration-style:solid;text-decoration-color:#000000;letter-spacing:normal;word-spacing:normal;text-transform:none;writing-mode:lr-tb;direction:ltr;text-orientation:mixed;dominant-baseline:auto;baseline-shift:baseline;text-anchor:start;white-space:normal;shape-padding:0;clip-rule:nonzero;display:inline;overflow:visible;visibility:visible;opacity:1;isolation:auto;mix-blend-mode:normal;color-interpolation:sRGB;color-interpolation-filters:linearRGB;solid-color:#000000;solid-opacity:1;vector-effect:none;fill-opacity:1;fill-rule:nonzero;stroke:none;stroke-width:0.45912993;stroke-linecap:butt;stroke-linejoin:miter;stroke-miterlimit:4;stroke-dasharray:none;stroke-dashoffset:0;stroke-opacity:1;color-rendering:auto;image-rendering:auto;shape-rendering:auto;text-rendering:auto;enable-background:accumulate"
       d="m 13.712891,266.11523 c -2.588534,0 -4.9315003,0.18898 -6.6406254,0.49805 -0.8545625,0.15454 -1.5487362,0.33696 -2.0488281,0.55078 -0.250046,0.10691 -0.4540581,0.21993 -0.6074219,0.35547 -0.1533637,0.13554 -0.265625,0.31139 -0.265625,0.51367 0,0.30215 0.2286859,0.52171 0.5292969,0.69727 0.252921,0.14771 0.6248997,0.2693 1.0273437,0.38867 -0.4920167,1.83581 -0.6959528,6.06662 4.8906248,10.74219 -5.1026088,4.26665 -5.3806662,8.17207 -5.0058591,10.22265 -0.3730477,0.11658 -0.7160423,0.2351 -0.9511719,0.37891 -0.2781907,0.17015 -0.4902344,0.38686 -0.4902344,0.67578 v 0.78125 c 0,0.20228 0.1122612,0.37814 0.265625,0.51367 0.1533639,0.13554 0.3573758,0.24856 0.6074219,0.35547 0.5000922,0.21382 1.1942654,0.39625 2.0488281,0.55078 1.7091254,0.30908 4.0520914,0.49805 6.6406254,0.49805 2.588533,0 4.931499,-0.18897 6.640625,-0.49805 0.854562,-0.15453 1.548735,-0.33696 2.048828,-0.55078 0.250046,-0.10691 0.452105,-0.21993 0.605468,-0.35547 0.153364,-0.13553 0.267579,-0.31139 0.267579,-0.51367 v -0.78125 c -10e-7,-0.28892 -0.212082,-0.50563 -0.490235,-0.67578 -0.234746,-0.1436 -0.578983,-0.26248 -0.951172,-0.37891 0.374261,-2.05029 0.09616,-5.95575 -5.005859,-10.22265 5.585476,-4.67478 5.382075,-8.90655 4.890625,-10.74219 0.402317,-0.11945 0.774466,-0.241 1.027344,-0.38867 0.300559,-0.17552 0.529297,-0.39512 0.529297,-0.69727 0,-0.20228 -0.114215,-0.37813 -0.267579,-0.51367 -0.153363,-0.13554 -0.355422,-0.24856 -0.605468,-0.35547 -0.500092,-0.21382 -1.194266,-0.39624 -2.048828,-0.55078 -1.709126,-0.30907 -4.052091,-0.49805 -6.640625,-0.49805 z m 0,0.45899 c 2.566098,0 4.889711,0.18844 6.558593,0.49023 0.834441,0.1509 1.506676,0.33144 1.951172,0.52149 0.222248,0.095 0.387128,0.19312 0.482422,0.27734 0.09529,0.0842 0.111328,0.13915 0.111328,0.16992 0,0.046 -0.06249,0.16049 -0.302734,0.30078 -0.240242,0.1403 -0.619998,0.28472 -1.107422,0.41602 l -0.228516,0.0625 0.06836,0.22461 c 0.484814,1.62664 1.001695,5.84907 -4.878906,10.64844 l -0.21875,0.17773 0.21875,0.17774 c 5.352883,4.36825 5.39767,8.25452 5.003906,10.14648 l -0.04297,0.20898 0.205078,0.0586 c 0.446682,0.12727 0.794126,0.26728 1.011719,0.40039 0.217593,0.13311 0.271484,0.23971 0.271484,0.2832 v 0.78125 c 0,0.0308 -0.01603,0.0838 -0.111328,0.16797 -0.09529,0.0842 -0.260174,0.18427 -0.482422,0.2793 -0.444496,0.19005 -1.116731,0.37058 -1.951172,0.52148 -1.668882,0.3018 -3.992495,0.49024 -6.558593,0.49024 -2.566099,0 -4.889712,-0.18844 -6.5585941,-0.49024 -0.8344411,-0.1509 -1.5066759,-0.33143 -1.9511719,-0.52148 -0.222248,-0.095 -0.3871279,-0.19508 -0.4824219,-0.2793 -0.095294,-0.0842 -0.1113281,-0.13719 -0.1113281,-0.16797 v -0.78125 c 0,-0.0435 0.053859,-0.15009 0.2714844,-0.2832 0.2176248,-0.13311 0.5648983,-0.27312 1.0117187,-0.40039 l 0.2050781,-0.0586 -0.042969,-0.20898 C 5.6603873,288.29529 5.705158,284.40899 11.058594,280.04102 l 0.21875,-0.17774 -0.21875,-0.17773 C 5.176858,274.88533 5.6943253,270.66405 6.1796875,269.03711 L 6.2480469,268.8125 6.0195312,268.75 C 5.532,268.61884 5.1523691,268.4743 4.9121094,268.33398 4.6718497,268.19367 4.609375,268.07916 4.609375,268.0332 c 0,-0.0308 0.016034,-0.0857 0.1113281,-0.16992 0.095294,-0.0842 0.2601738,-0.18232 0.4824219,-0.27734 0.4444962,-0.19005 1.1167309,-0.37059 1.9511719,-0.52149 1.6688819,-0.30179 3.9924951,-0.49023 6.5585941,-0.49023 z m -6.3906254,2.59375 -0.048828,0.16211 c -0.414326,1.34034 -0.9059441,5.40158 5.1835935,10.01172 h 0.002 c 0.157768,0.11807 0.257218,0.31637 0.257813,0.51953 4.12e-4,0.20341 -0.09773,0.40098 -0.259766,0.52344 -5.5107981,4.17171 -5.640836,7.89342 -5.2988279,9.55859 l 0.044922,0.2168 0.21875,-0.0371 c 0.4011003,-0.0671 0.8349882,-0.12628 1.2988281,-0.17969 l 0.09375,-0.0117 0.058594,-0.0723 c 0.3647054,-0.44671 1.4543011,-1.23283 3.9785151,-2.72071 0.0089,-0.004 0.140856,-0.0443 0.300782,-0.0625 0.735731,-0.0838 1.479407,0.0861 2.117187,0.46875 2.040015,1.22391 2.954894,1.90888 3.283203,2.31446 l 0.06055,0.0723 0.0918,0.0117 c 0.463375,0.0537 0.899844,0.11486 1.300781,0.18164 l 0.267579,0.043 v -0.26953 l -0.0059,0.0449 c 0.340267,-1.66115 0.21366,-5.38601 -5.298828,-9.56055 h -0.002 c -0.160751,-0.12128 -0.257813,-0.31688 -0.257813,-0.51953 0,-0.20266 0.09835,-0.39944 0.259766,-0.52148 v -0.002 c 6.062735,-4.59082 5.584568,-8.67003 5.181641,-10.00781 l -0.04883,-0.16406 h -0.916015 l -0.01563,0.002 c -1.527854,0.20128 -3.414329,0.32031 -5.457031,0.32031 -2.042703,0 -3.9291746,-0.11903 -5.4570316,-0.32031 l -0.015625,-0.002 z m 0.3632813,0.45898 h 0.5390625 c 1.5484366,0.20261 3.4386276,0.32227 5.4882816,0.32227 2.048926,0 3.938197,-0.11979 5.486328,-0.32227 h 0.537109 c 0.356012,1.31229 0.725814,4.97795 -5.044922,9.34766 -0.277503,0.20982 -0.441406,0.54029 -0.441406,0.88867 0,0.34838 0.163803,0.67727 0.441406,0.88672 5.215863,3.94991 5.409613,7.29199 5.140625,8.88672 -0.329021,-0.0513 -0.666114,-0.10168 -1.03125,-0.14453 -0.44127,-0.51469 -1.309453,-1.14867 -3.294922,-2.33985 -0.721641,-0.43294 -1.566857,-0.62689 -2.40625,-0.53125 -0.183402,0.0209 -0.326106,0.038 -0.46289,0.10938 l -0.0059,0.004 -0.0039,0.002 c -2.475019,1.4583 -3.505183,2.18612 -3.9960936,2.75586 -0.3672569,0.0428 -0.7064957,0.0929 -1.0371094,0.14453 -0.2703933,-1.59793 -0.073877,-4.9393 5.140625,-8.88672 0.278566,-0.21052 0.442114,-0.54134 0.441406,-0.89062 -0.001,-0.34901 -0.166693,-0.67771 -0.443359,-0.88477 -5.7980225,-4.39007 -5.4127898,-8.03667 -5.0468751,-9.34766 z"
       id="path8"
       inkscape:connector-curvature="0" />
    <path
       style="fill:none;stroke:#000000;stroke-width:0.13546439;stroke-miterlimit:4;stroke-dasharray:none;stroke-opacity:1"
       inkscape:connector-curvature="0"
       d="m 23.029024,290.48393 c 0.472817,-2.00261 0.371103,-6.09288 -5.895095,-10.60053 6.883947,-4.95249 6.328265,-9.40084 5.743661,-11.12988 1.156857,-0.27471 1.832449,-0.60499 1.832449,-0.96076 0,-0.95275 -4.844823,-1.72503 -10.821155,-1.72503 -5.97633,0 -10.8211518,0.77228 -10.8211518,1.72503 0,0.35577 0.6755902,0.68635 1.832772,0.96076 -0.5852522,1.72933 -1.1419082,6.17652 5.7433358,11.12988 -6.2668472,4.50736 -6.3682345,8.59764 -5.8947678,10.60053 -1.0632672,0.26697 -1.68134,0.5835 -1.68134,0.92323 v 0.80008 c 0,0.95275 4.8448224,1.72502 10.8211518,1.72502 5.976332,0 10.821156,-0.77227 10.821156,-1.72502 v -0.80008 c -1e-6,-0.33973 -0.618073,-0.65626 -1.681016,-0.92323 z"
       id="path819"
       sodipodi:nodetypes="cccssscccsssscc" />
  </g>
</svg>
