  0
SECTION
  2
HEADER
  9
$ACADVER
  1
AC1014
  9
$HANDSEED
  5
FFFF
  9
$MEASUREMENT
 70
     1
  0
ENDSEC
  0
SECTION
  2
TABLES
  0
TABLE
  2
VPORT
  5
8
330
0
100
AcDbSymbolTable
 70
     4
  0
VPORT
  5
2E
330
8
100
AcDbSymbolTableRecord
100
AcDbViewportTableRecord
  2
*ACTIVE
 70
     0
 10
0.0
 20
0.0
 11
1.0
 21
1.0
 12
210.0
 22
148.5
 13
0.0
 23
0.0
 14
10.0
 24
10.0
 15
10.0
 25
10.0
 16
0.0
 26
0.0
 36
1.0
 17
0.0
 27
0.0
 37
0.0
 40
341.0
 41
1.24
 42
50.0
 43
0.0
 44
0.0
 50
0.0
 51
0.0
 71
     0
 72
   100
 73
     1
 74
     3
 75
     0
 76
     0
 77
     0
 78
     0
  0
ENDTAB
  0
TABLE
  2
LTYPE
  5
5
330
0
100
AcDbSymbolTable
 70
     1
  0
LTYPE
  5
14
330
5
100
AcDbSymbolTableRecord
100
AcDbLinetypeTableRecord
  2
BYBLOCK
 70
     0
  3

 72
    65
 73
     0
 40
0.0
  0
LTYPE
  5
15
330
5
100
AcDbSymbolTableRecord
100
AcDbLinetypeTableRecord
  2
BYLAYER
 70
     0
  3

 72
    65
 73
     0
 40
0.0
  0
LTYPE
  5
16
330
5
100
AcDbSymbolTableRecord
100
AcDbLinetypeTableRecord
  2
CONTINUOUS
 70
     0
  3
Solid line
 72
    65
 73
     0
 40
0.0
  0
ENDTAB
  0
TABLE
  2
LAYER
  5
2
100
AcDbSymbolTable
 70
2
  0
LAYER
  5
50
100
AcDbSymbolTableRecord
100
AcDbLayerTableRecord
  2
0
 70
0
  6
CONTINUOUS
  0
LAYER
  5
51
100
AcDbSymbolTableRecord
100
AcDbLayerTableRecord
  2
Layer_1
 70
0
  6
CONTINUOUS
  0
ENDTAB
  0
TABLE
  2
STYLE
  5
3
330
0
100
AcDbSymbolTable
 70
     1
  0
STYLE
  5
11
330
3
100
AcDbSymbolTableRecord
100
AcDbTextStyleTableRecord
  2
STANDARD
 70
     0
 40
0.0
 41
1.0
 50
0.0
 71
     0
 42
2.5
  3
txt
  4

  0
ENDTAB
  0
TABLE
  2
VIEW
  5
6
330
0
100
AcDbSymbolTable
 70
     0
  0
ENDTAB
  0
TABLE
  2
UCS
  5
7
330
0
100
AcDbSymbolTable
 70
     0
  0
ENDTAB
  0
TABLE
  2
APPID
  5
9
330
0
100
AcDbSymbolTable
 70
     2
  0
APPID
  5
12
330
9
100
AcDbSymbolTableRecord
100
AcDbRegAppTableRecord
  2
ACAD
 70
     0
  0
ENDTAB
  0
TABLE
  2
DIMSTYLE
  5
A
330
0
100
AcDbSymbolTable
 70
     1
  0
DIMSTYLE
105
27
330
A
100
AcDbSymbolTableRecord
100
AcDbDimStyleTableRecord
  2
ISO-25
 70
     0
  3

  4

  5

  6

  7

 40
1.0
 41
2.5
 42
0.625
 43
3.75
 44
1.25
 45
0.0
 46
0.0
 47
0.0
 48
0.0
140
2.5
141
2.5
142
0.0
143
0.03937007874016
144
1.0
145
0.0
146
1.0
147
0.625
 71
     0
 72
     0
 73
     0
 74
     0
 75
     0
 76
     0
 77
     1
 78
     8
170
     0
171
     3
172
     1
173
     0
174
     0
175
     0
176
     0
177
     0
178
     0
270
     2
271
     2
272
     2
273
     2
274
     3
340
11
275
     0
280
     0
281
     0
282
     0
283
     0
284
     8
285
     0
286
     0
287
     3
288
     0
  0
ENDTAB
  0
TABLE
  2
BLOCK_RECORD
  5
1
330
0
100
AcDbSymbolTable
 70
     1
  0
BLOCK_RECORD
  5
1F
330
1
100
AcDbSymbolTableRecord
100
AcDbBlockTableRecord
  2
*MODEL_SPACE
  0
BLOCK_RECORD
  5
1B
330
1
100
AcDbSymbolTableRecord
100
AcDbBlockTableRecord
  2
*PAPER_SPACE
  0
ENDTAB
  0
ENDSEC
  0
SECTION
  2
BLOCKS
  0
BLOCK
  5
20
330
1F
100
AcDbEntity
  8
0
100
AcDbBlockBegin
  2
*MODEL_SPACE
 70
     0
 10
0.0
 20
0.0
 30
0.0
  3
*MODEL_SPACE
  1

  0
ENDBLK
  5
21
330
1F
100
AcDbEntity
  8
0
100
AcDbBlockEnd
  0
BLOCK
  5
1C
330
1B
100
AcDbEntity
 67
     1
  8
0
100
AcDbBlockBegin
  2
*PAPER_SPACE
  1

  0
ENDBLK
  5
1D
330
1B
100
AcDbEntity
 67
     1
  8
0
100
AcDbBlockEnd
  0
ENDSEC
  0
SECTION
  2
ENTITIES
  0
SPLINE
  5
100
100
AcDbEntity
  8
Layer_1
 62
7
100
AcDbSpline
 70
8
 71
3
 72
8
 73
4
 74
0
 40
0
 40
0
 40
0
 40
0
 40
1
 40
1
 40
1
 40
1
 10
29.282111
 20
66.508980
 30
0.0
 10
28.108951
 20
67.039200
 30
0.0
 10
26.868481
 20
66.634271
 30
0.0
 10
26.165108
 20
65.816929
 30
0.0
  0
SPLINE
  5
101
100
AcDbEntity
  8
Layer_1
 62
7
100
AcDbSpline
 70
8
 71
3
 72
8
 73
4
 74
0
 40
0
 40
0
 40
0
 40
0
 40
1
 40
1
 40
1
 40
1
 10
26.165108
 20
65.816929
 30
0.0
 10
25.461735
 20
64.999616
 30
0.0
 10
25.243040
 20
63.713735
 30
0.0
 10
25.943652
 20
62.633480
 30
0.0
  0
SPLINE
  5
102
100
AcDbEntity
  8
Layer_1
 62
7
100
AcDbSpline
 70
8
 71
3
 72
8
 73
4
 74
0
 40
0
 40
0
 40
0
 40
0
 40
1
 40
1
 40
1
 40
1
 10
25.943652
 20
62.633480
 30
0.0
 10
27.946656
 20
59.545162
 30
0.0
 10
31.034636
 20
56.134346
 30
0.0
 10
35.709891
 20
52.568277
 30
0.0
  0
SPLINE
  5
103
100
AcDbEntity
  8
Layer_1
 62
7
100
AcDbSpline
 70
8
 71
3
 72
8
 73
4
 74
0
 40
0
 40
0
 40
0
 40
0
 40
1
 40
1
 40
1
 40
1
 10
35.737671
 20
52.545600
 30
0.0
 10
36.561535
 20
51.977820
 30
0.0
 10
37.441576
 20
51.412876
 30
0.0
 10
38.384079
 20
50.845918
 30
0.0
  0
LWPOLYLINE
  5
104
100
AcDbEntity
  8
Layer_1
 62
7
100
AcDbPolyline
 90
3
 70
0
 10
35.709891
 20
52.568277
 30
0.0
 10
35.726615
 20
52.556939
 30
0.0
 10
35.737671
 20
52.545600
 30
0.0
  0
SPLINE
  5
105
100
AcDbEntity
  8
Layer_1
 62
7
100
AcDbSpline
 70
8
 71
3
 72
8
 73
4
 74
0
 40
0
 40
0
 40
0
 40
0
 40
1
 40
1
 40
1
 40
1
 10
39.364038
 20
50.851587
 30
0.0
 10
40.264143
 20
51.406356
 30
0.0
 10
41.125045
 20
51.947717
 30
0.0
 10
41.938472
 20
52.495909
 30
0.0
  0
LWPOLYLINE
  5
106
100
AcDbEntity
  8
Layer_1
 62
7
100
AcDbPolyline
 90
4
 70
0
 10
38.384079
 20
50.845918
 30
0.0
 10
38.539106
 20
50.751808
 30
0.0
 10
39.209012
 20
50.751808
 30
0.0
 10
39.364038
 20
50.851587
 30
0.0
  0
SPLINE
  5
107
100
AcDbEntity
  8
Layer_1
 62
7
100
AcDbSpline
 70
8
 71
3
 72
8
 73
4
 74
0
 40
0
 40
0
 40
0
 40
0
 40
1
 40
1
 40
1
 40
1
 10
41.966252
 20
52.518586
 30
0.0
 10
44.684969
 20
54.590287
 30
0.0
 10
46.868491
 20
56.614394
 30
0.0
 10
48.615489
 20
58.553291
 30
0.0
  0
SPLINE
  5
108
100
AcDbEntity
  8
Layer_1
 62
7
100
AcDbSpline
 70
8
 71
3
 72
8
 73
4
 74
0
 40
0
 40
0
 40
0
 40
0
 40
1
 40
1
 40
1
 40
1
 10
48.615489
 20
58.553291
 30
0.0
 10
49.426863
 20
59.453802
 30
0.0
 10
49.474621
 20
60.681940
 30
0.0
 10
48.991963
 20
61.592797
 30
0.0
  0
SPLINE
  5
109
100
AcDbEntity
  8
Layer_1
 62
7
100
AcDbSpline
 70
8
 71
3
 72
8
 73
4
 74
0
 40
0
 40
0
 40
0
 40
0
 40
1
 40
1
 40
1
 40
1
 10
48.991963
 20
61.592797
 30
0.0
 10
48.509308
 20
62.503625
 30
0.0
 10
47.462893
 20
63.151512
 30
0.0
 10
46.262509
 20
62.976898
 30
0.0
  0
SPLINE
  5
10a
100
AcDbEntity
  8
Layer_1
 62
7
100
AcDbSpline
 70
8
 71
3
 72
8
 73
4
 74
0
 40
0
 40
0
 40
0
 40
0
 40
1
 40
1
 40
1
 40
1
 10
46.262509
 20
62.976898
 30
0.0
 10
40.662156
 20
62.161937
 30
0.0
 10
34.030380
 20
64.363209
 30
0.0
 10
29.282318
 20
66.509121
 30
0.0
  0
LWPOLYLINE
  5
10b
100
AcDbEntity
  8
Layer_1
 62
7
100
AcDbPolyline
 90
3
 70
0
 10
41.938472
 20
52.495909
 30
0.0
 10
41.949527
 20
52.507247
 30
0.0
 10
41.966252
 20
52.518586
 30
0.0
  0
SPLINE
  5
10c
100
AcDbEntity
  8
Layer_1
 62
7
100
AcDbSpline
 70
8
 71
3
 72
8
 73
4
 74
0
 40
0
 40
0
 40
0
 40
0
 40
1
 40
1
 40
1
 40
1
 10
28.745079
 20
65.324183
 30
0.0
 10
33.598766
 20
63.130535
 30
0.0
 10
40.383652
 20
60.809471
 30
0.0
 10
46.450542
 20
61.692293
 30
0.0
  0
SPLINE
  5
10d
100
AcDbEntity
  8
Layer_1
 62
7
100
AcDbSpline
 70
8
 71
3
 72
8
 73
4
 74
0
 40
0
 40
0
 40
0
 40
0
 40
1
 40
1
 40
1
 40
1
 10
46.450542
 20
61.692293
 30
0.0
 10
47.111168
 20
61.788387
 30
0.0
 10
47.585772
 20
61.463820
 30
0.0
 10
47.840182
 20
60.983631
 30
0.0
  0
SPLINE
  5
10e
100
AcDbEntity
  8
Layer_1
 62
7
100
AcDbSpline
 70
8
 71
3
 72
8
 73
4
 74
0
 40
0
 40
0
 40
0
 40
0
 40
1
 40
1
 40
1
 40
1
 10
47.840182
 20
60.983631
 30
0.0
 10
48.094591
 20
60.503528
 30
0.0
 10
48.099410
 20
59.918995
 30
0.0
 10
47.651933
 20
59.422365
 30
0.0
  0
SPLINE
  5
10f
100
AcDbEntity
  8
Layer_1
 62
7
100
AcDbSpline
 70
8
 71
3
 72
8
 73
4
 74
0
 40
0
 40
0
 40
0
 40
0
 40
1
 40
1
 40
1
 40
1
 10
47.651933
 20
59.422365
 30
0.0
 10
45.964740
 20
57.549855
 30
0.0
 10
43.841055
 20
55.581619
 30
0.0
 10
41.179861
 20
53.553770
 30
0.0
  0
SPLINE
  5
110
100
AcDbEntity
  8
Layer_1
 62
7
100
AcDbSpline
 70
8
 71
3
 72
8
 73
4
 74
0
 40
0
 40
0
 40
0
 40
0
 40
1
 40
1
 40
1
 40
1
 10
41.179861
 20
53.553770
 30
0.0
 10
40.452990
 20
53.064539
 30
0.0
 10
39.676884
 20
52.580211
 30
0.0
 10
38.871176
 20
52.081087
 30
0.0
  0
SPLINE
  5
111
100
AcDbEntity
  8
Layer_1
 62
7
100
AcDbSpline
 70
8
 71
3
 72
8
 73
4
 74
0
 40
0
 40
0
 40
0
 40
0
 40
1
 40
1
 40
1
 40
1
 10
38.871176
 20
52.081087
 30
0.0
 10
38.035270
 20
52.588913
 30
0.0
 10
37.238513
 20
53.096457
 30
0.0
 10
36.501588
 20
53.603603
 30
0.0
  0
SPLINE
  5
112
100
AcDbEntity
  8
Layer_1
 62
7
100
AcDbSpline
 70
8
 71
3
 72
8
 73
4
 74
0
 40
0
 40
0
 40
0
 40
0
 40
1
 40
1
 40
1
 40
1
 10
36.501588
 20
53.603603
 30
0.0
 10
31.924723
 20
57.094611
 30
0.0
 10
28.948518
 20
60.399269
 30
0.0
 10
27.039851
 20
63.342142
 30
0.0
  0
SPLINE
  5
113
100
AcDbEntity
  8
Layer_1
 62
7
100
AcDbSpline
 70
8
 71
3
 72
8
 73
4
 74
0
 40
0
 40
0
 40
0
 40
0
 40
1
 40
1
 40
1
 40
1
 10
27.039851
 20
63.342142
 30
0.0
 10
26.647741
 20
63.946743
 30
0.0
 10
26.777674
 20
64.536548
 30
0.0
 10
27.150581
 20
64.969852
 30
0.0
  0
SPLINE
  5
114
100
AcDbEntity
  8
Layer_1
 62
7
100
AcDbSpline
 70
8
 71
3
 72
8
 73
4
 74
0
 40
0
 40
0
 40
0
 40
0
 40
1
 40
1
 40
1
 40
1
 10
27.150581
 20
64.969852
 30
0.0
 10
27.523484
 20
65.403184
 30
0.0
 10
28.088305
 20
65.621027
 30
0.0
 10
28.745069
 20
65.324183
 30
0.0
  0
LWPOLYLINE
  5
115
100
AcDbEntity
  8
Layer_1
 62
7
100
AcDbPolyline
 90
2
 70
0
 10
29.282318
 20
66.509121
 30
0.0
 10
29.282111
 20
66.508980
 30
0.0
  0
SPLINE
  5
116
100
AcDbEntity
  8
Layer_1
 62
7
100
AcDbSpline
 70
8
 71
3
 72
8
 73
4
 74
0
 40
0
 40
0
 40
0
 40
0
 40
1
 40
1
 40
1
 40
1
 10
38.854576
 20
45.880299
 30
0.0
 10
37.255572
 20
45.880299
 30
0.0
 10
35.947947
 20
44.572677
 30
0.0
 10
35.947959
 20
42.973682
 30
0.0
  0
SPLINE
  5
117
100
AcDbEntity
  8
Layer_1
 62
7
100
AcDbSpline
 70
8
 71
3
 72
8
 73
4
 74
0
 40
0
 40
0
 40
0
 40
0
 40
1
 40
1
 40
1
 40
1
 10
35.947959
 20
42.973682
 30
0.0
 10
35.947967
 20
41.374687
 30
0.0
 10
37.255586
 20
40.061509
 30
0.0
 10
38.854576
 20
40.061509
 30
0.0
  0
SPLINE
  5
118
100
AcDbEntity
  8
Layer_1
 62
7
100
AcDbSpline
 70
8
 71
3
 72
8
 73
4
 74
0
 40
0
 40
0
 40
0
 40
0
 40
1
 40
1
 40
1
 40
1
 10
38.854576
 20
40.061509
 30
0.0
 10
40.453566
 20
40.061509
 30
0.0
 10
41.761188
 20
41.374687
 30
0.0
 10
41.761196
 20
42.973682
 30
0.0
  0
SPLINE
  5
119
100
AcDbEntity
  8
Layer_1
 62
7
100
AcDbSpline
 70
8
 71
3
 72
8
 73
4
 74
0
 40
0
 40
0
 40
0
 40
0
 40
1
 40
1
 40
1
 40
1
 10
41.761196
 20
42.973682
 30
0.0
 10
41.761208
 20
44.572677
 30
0.0
 10
40.453580
 20
45.880299
 30
0.0
 10
38.854576
 20
45.880299
 30
0.0
  0
LWPOLYLINE
  5
11a
100
AcDbEntity
  8
Layer_1
 62
7
100
AcDbPolyline
 90
1
 70
1
 10
28.745069
 20
65.324183
 30
0.0
  0
SPLINE
  5
11b
100
AcDbEntity
  8
Layer_1
 62
7
100
AcDbSpline
 70
8
 71
3
 72
8
 73
4
 74
0
 40
0
 40
0
 40
0
 40
0
 40
1
 40
1
 40
1
 40
1
 10
38.854576
 20
44.579225
 30
0.0
 10
39.750211
 20
44.579225
 30
0.0
 10
40.460145
 20
43.869317
 30
0.0
 10
40.460139
 20
42.973682
 30
0.0
  0
SPLINE
  5
11c
100
AcDbEntity
  8
Layer_1
 62
7
100
AcDbSpline
 70
8
 71
3
 72
8
 73
4
 74
0
 40
0
 40
0
 40
0
 40
0
 40
1
 40
1
 40
1
 40
1
 10
40.460139
 20
42.973682
 30
0.0
 10
40.460134
 20
42.078047
 30
0.0
 10
39.750202
 20
41.362583
 30
0.0
 10
38.854576
 20
41.362583
 30
0.0
  0
SPLINE
  5
11d
100
AcDbEntity
  8
Layer_1
 62
7
100
AcDbSpline
 70
8
 71
3
 72
8
 73
4
 74
0
 40
0
 40
0
 40
0
 40
0
 40
1
 40
1
 40
1
 40
1
 10
38.854576
 20
41.362583
 30
0.0
 10
37.958950
 20
41.362583
 30
0.0
 10
37.249021
 20
42.078047
 30
0.0
 10
37.249016
 20
42.973682
 30
0.0
  0
SPLINE
  5
11e
100
AcDbEntity
  8
Layer_1
 62
7
100
AcDbSpline
 70
8
 71
3
 72
8
 73
4
 74
0
 40
0
 40
0
 40
0
 40
0
 40
1
 40
1
 40
1
 40
1
 10
37.249016
 20
42.973682
 30
0.0
 10
37.249010
 20
43.869317
 30
0.0
 10
37.958941
 20
44.579225
 30
0.0
 10
38.854576
 20
44.579225
 30
0.0
  0
LWPOLYLINE
  5
11f
100
AcDbEntity
  8
Layer_1
 62
7
100
AcDbPolyline
 90
1
 70
1
 10
38.854576
 20
45.880299
 30
0.0
  0
SPLINE
  5
120
100
AcDbEntity
  8
Layer_1
 62
7
100
AcDbSpline
 70
8
 71
3
 72
8
 73
4
 74
0
 40
0
 40
0
 40
0
 40
0
 40
1
 40
1
 40
1
 40
1
 10
38.871187
 20
38.992989
 30
0.0
 10
36.523809
 20
38.992989
 30
0.0
 10
34.608155
 20
37.071780
 30
0.0
 10
34.608144
 20
34.724409
 30
0.0
  0
SPLINE
  5
121
100
AcDbEntity
  8
Layer_1
 62
7
100
AcDbSpline
 70
8
 71
3
 72
8
 73
4
 74
0
 40
0
 40
0
 40
0
 40
0
 40
1
 40
1
 40
1
 40
1
 10
34.608144
 20
34.724409
 30
0.0
 10
34.608155
 20
32.377039
 30
0.0
 10
36.523809
 20
30.461357
 30
0.0
 10
38.871187
 20
30.461357
 30
0.0
  0
SPLINE
  5
122
100
AcDbEntity
  8
Layer_1
 62
7
100
AcDbSpline
 70
8
 71
3
 72
8
 73
4
 74
0
 40
0
 40
0
 40
0
 40
0
 40
1
 40
1
 40
1
 40
1
 10
38.871187
 20
30.461357
 30
0.0
 10
41.218563
 20
30.461357
 30
0.0
 10
43.134216
 20
32.377039
 30
0.0
 10
43.134228
 20
34.724409
 30
0.0
  0
SPLINE
  5
123
100
AcDbEntity
  8
Layer_1
 62
7
100
AcDbSpline
 70
8
 71
3
 72
8
 73
4
 74
0
 40
0
 40
0
 40
0
 40
0
 40
1
 40
1
 40
1
 40
1
 10
43.134228
 20
34.724409
 30
0.0
 10
43.134216
 20
37.071780
 30
0.0
 10
41.218563
 20
38.992989
 30
0.0
 10
38.871187
 20
38.992989
 30
0.0
  0
LWPOLYLINE
  5
124
100
AcDbEntity
  8
Layer_1
 62
7
100
AcDbPolyline
 90
1
 70
1
 10
38.854576
 20
44.579225
 30
0.0
  0
SPLINE
  5
125
100
AcDbEntity
  8
Layer_1
 62
7
100
AcDbSpline
 70
8
 71
3
 72
8
 73
4
 74
0
 40
0
 40
0
 40
0
 40
0
 40
1
 40
1
 40
1
 40
1
 10
38.871187
 20
37.691943
 30
0.0
 10
40.515199
 20
37.691943
 30
0.0
 10
41.833162
 20
36.368419
 30
0.0
 10
41.833168
 20
34.724409
 30
0.0
  0
SPLINE
  5
126
100
AcDbEntity
  8
Layer_1
 62
7
100
AcDbSpline
 70
8
 71
3
 72
8
 73
4
 74
0
 40
0
 40
0
 40
0
 40
0
 40
1
 40
1
 40
1
 40
1
 10
41.833168
 20
34.724409
 30
0.0
 10
41.833162
 20
33.080400
 30
0.0
 10
40.515199
 20
31.762431
 30
0.0
 10
38.871187
 20
31.762431
 30
0.0
  0
SPLINE
  5
127
100
AcDbEntity
  8
Layer_1
 62
7
100
AcDbSpline
 70
8
 71
3
 72
8
 73
4
 74
0
 40
0
 40
0
 40
0
 40
0
 40
1
 40
1
 40
1
 40
1
 10
38.871187
 20
31.762431
 30
0.0
 10
37.227172
 20
31.762431
 30
0.0
 10
35.909209
 20
33.080400
 30
0.0
 10
35.909203
 20
34.724409
 30
0.0
  0
SPLINE
  5
128
100
AcDbEntity
  8
Layer_1
 62
7
100
AcDbSpline
 70
8
 71
3
 72
8
 73
4
 74
0
 40
0
 40
0
 40
0
 40
0
 40
1
 40
1
 40
1
 40
1
 10
35.909203
 20
34.724409
 30
0.0
 10
35.909209
 20
36.368419
 30
0.0
 10
37.227172
 20
37.691943
 30
0.0
 10
38.871187
 20
37.691943
 30
0.0
  0
LWPOLYLINE
  5
129
100
AcDbEntity
  8
Layer_1
 62
7
100
AcDbPolyline
 90
1
 70
1
 10
38.871187
 20
38.992989
 30
0.0
  0
SPLINE
  5
12a
100
AcDbEntity
  8
Layer_1
 62
7
100
AcDbSpline
 70
8
 71
3
 72
8
 73
4
 74
0
 40
0
 40
0
 40
0
 40
0
 40
1
 40
1
 40
1
 40
1
 10
38.871187
 20
87.547380
 30
0.0
 10
31.533610
 20
87.547380
 30
0.0
 10
24.892131
 20
87.011688
 30
0.0
 10
20.047367
 20
86.135584
 30
0.0
  0
SPLINE
  5
12b
100
AcDbEntity
  8
Layer_1
 62
7
100
AcDbSpline
 70
8
 71
3
 72
8
 73
4
 74
0
 40
0
 40
0
 40
0
 40
0
 40
1
 40
1
 40
1
 40
1
 10
20.047367
 20
86.135584
 30
0.0
 10
17.624985
 20
85.697518
 30
0.0
 10
15.657249
 20
85.180422
 30
0.0
 10
14.239665
 20
84.574318
 30
0.0
  0
SPLINE
  5
12c
100
AcDbEntity
  8
Layer_1
 62
7
100
AcDbSpline
 70
8
 71
3
 72
8
 73
4
 74
0
 40
0
 40
0
 40
0
 40
0
 40
1
 40
1
 40
1
 40
1
 10
14.239665
 20
84.574318
 30
0.0
 10
13.530874
 20
84.271266
 30
0.0
 10
12.952572
 20
83.950894
 30
0.0
 10
12.517839
 20
83.566687
 30
0.0
  0
SPLINE
  5
12d
100
AcDbEntity
  8
Layer_1
 62
7
100
AcDbSpline
 70
8
 71
3
 72
8
 73
4
 74
0
 40
0
 40
0
 40
0
 40
0
 40
1
 40
1
 40
1
 40
1
 10
12.517839
 20
83.566687
 30
0.0
 10
12.083108
 20
83.182479
 30
0.0
 10
11.764887
 20
82.684006
 30
0.0
 10
11.764887
 20
82.110614
 30
0.0
  0
SPLINE
  5
12e
100
AcDbEntity
  8
Layer_1
 62
7
100
AcDbSpline
 70
8
 71
3
 72
8
 73
4
 74
0
 40
0
 40
0
 40
0
 40
0
 40
1
 40
1
 40
1
 40
1
 10
11.764887
 20
82.110614
 30
0.0
 10
11.764887
 20
81.254126
 30
0.0
 10
12.413130
 20
80.631751
 30
0.0
 10
13.265256
 20
80.134101
 30
0.0
  0
SPLINE
  5
12f
100
AcDbEntity
  8
Layer_1
 62
7
100
AcDbSpline
 70
8
 71
3
 72
8
 73
4
 74
0
 40
0
 40
0
 40
0
 40
0
 40
1
 40
1
 40
1
 40
1
 10
13.265256
 20
80.134101
 30
0.0
 10
13.982197
 20
79.715395
 30
0.0
 10
15.036625
 20
79.370731
 30
0.0
 10
16.177411
 20
79.032359
 30
0.0
  0
SPLINE
  5
130
100
AcDbEntity
  8
Layer_1
 62
7
100
AcDbSpline
 70
8
 71
3
 72
8
 73
4
 74
0
 40
0
 40
0
 40
0
 40
0
 40
1
 40
1
 40
1
 40
1
 10
16.177411
 20
79.032359
 30
0.0
 10
14.782718
 20
73.828488
 30
0.0
 10
14.204632
 20
61.835641
 30
0.0
 10
30.040600
 20
48.582057
 30
0.0
  0
SPLINE
  5
131
100
AcDbEntity
  8
Layer_1
 62
7
100
AcDbSpline
 70
8
 71
3
 72
8
 73
4
 74
0
 40
0
 40
0
 40
0
 40
0
 40
1
 40
1
 40
1
 40
1
 10
30.040600
 20
48.582057
 30
0.0
 10
15.576512
 20
36.487616
 30
0.0
 10
14.788318
 20
25.417134
 30
0.0
 10
15.850763
 20
19.604466
 30
0.0
  0
SPLINE
  5
132
100
AcDbEntity
  8
Layer_1
 62
7
100
AcDbSpline
 70
8
 71
3
 72
8
 73
4
 74
0
 40
0
 40
0
 40
0
 40
0
 40
1
 40
1
 40
1
 40
1
 10
15.850763
 20
19.604466
 30
0.0
 10
14.793305
 20
19.274003
 30
0.0
 10
13.821037
 20
18.938041
 30
0.0
 10
13.154528
 20
18.530391
 30
0.0
  0
SPLINE
  5
133
100
AcDbEntity
  8
Layer_1
 62
7
100
AcDbSpline
 70
8
 71
3
 72
8
 73
4
 74
0
 40
0
 40
0
 40
0
 40
0
 40
1
 40
1
 40
1
 40
1
 10
13.154528
 20
18.530391
 30
0.0
 10
12.365955
 20
18.048076
 30
0.0
 10
11.764887
 20
17.433780
 30
0.0
 10
11.764887
 20
16.614794
 30
0.0
  0
LWPOLYLINE
  5
134
100
AcDbEntity
  8
Layer_1
 62
7
100
AcDbPolyline
 90
1
 70
1
 10
38.871187
 20
37.691943
 30
0.0
  0
SPLINE
  5
135
100
AcDbEntity
  8
Layer_1
 62
7
100
AcDbSpline
 70
8
 71
3
 72
8
 73
4
 74
0
 40
0
 40
0
 40
0
 40
0
 40
1
 40
1
 40
1
 40
1
 10
11.764887
 20
14.400227
 30
0.0
 10
11.764887
 20
13.826835
 30
0.0
 10
12.083107
 20
13.328334
 30
0.0
 10
12.517839
 20
12.944154
 30
0.0
  0
SPLINE
  5
136
100
AcDbEntity
  8
Layer_1
 62
7
100
AcDbSpline
 70
8
 71
3
 72
8
 73
4
 74
0
 40
0
 40
0
 40
0
 40
0
 40
1
 40
1
 40
1
 40
1
 10
12.517839
 20
12.944154
 30
0.0
 10
12.952572
 20
12.559946
 30
0.0
 10
13.530873
 20
12.239575
 30
0.0
 10
14.239665
 20
11.936523
 30
0.0
  0
SPLINE
  5
137
100
AcDbEntity
  8
Layer_1
 62
7
100
AcDbSpline
 70
8
 71
3
 72
8
 73
4
 74
0
 40
0
 40
0
 40
0
 40
0
 40
1
 40
1
 40
1
 40
1
 10
14.239665
 20
11.936523
 30
0.0
 10
15.657250
 20
11.330419
 30
0.0
 10
17.624985
 20
10.813294
 30
0.0
 10
20.047367
 20
10.375257
 30
0.0
  0
SPLINE
  5
138
100
AcDbEntity
  8
Layer_1
 62
7
100
AcDbSpline
 70
8
 71
3
 72
8
 73
4
 74
0
 40
0
 40
0
 40
0
 40
0
 40
1
 40
1
 40
1
 40
1
 10
20.047367
 20
10.375257
 30
0.0
 10
24.892132
 20
9.499124
 30
0.0
 10
31.533610
 20
8.963461
 30
0.0
 10
38.871187
 20
8.963461
 30
0.0
  0
SPLINE
  5
139
100
AcDbEntity
  8
Layer_1
 62
7
100
AcDbSpline
 70
8
 71
3
 72
8
 73
4
 74
0
 40
0
 40
0
 40
0
 40
0
 40
1
 40
1
 40
1
 40
1
 10
38.871187
 20
8.963461
 30
0.0
 10
46.208761
 20
8.963461
 30
0.0
 10
52.850239
 20
9.499124
 30
0.0
 10
57.695006
 20
10.375257
 30
0.0
  0
SPLINE
  5
13a
100
AcDbEntity
  8
Layer_1
 62
7
100
AcDbSpline
 70
8
 71
3
 72
8
 73
4
 74
0
 40
0
 40
0
 40
0
 40
0
 40
1
 40
1
 40
1
 40
1
 10
57.695006
 20
10.375257
 30
0.0
 10
60.117386
 20
10.813294
 30
0.0
 10
62.085121
 20
11.330419
 30
0.0
 10
63.502707
 20
11.936523
 30
0.0
  0
SPLINE
  5
13b
100
AcDbEntity
  8
Layer_1
 62
7
100
AcDbSpline
 70
8
 71
3
 72
8
 73
4
 74
0
 40
0
 40
0
 40
0
 40
0
 40
1
 40
1
 40
1
 40
1
 10
63.502707
 20
11.936523
 30
0.0
 10
64.211499
 20
12.239575
 30
0.0
 10
64.784265
 20
12.559946
 30
0.0
 10
65.218995
 20
12.944154
 30
0.0
  0
SPLINE
  5
13c
100
AcDbEntity
  8
Layer_1
 62
7
100
AcDbSpline
 70
8
 71
3
 72
8
 73
4
 74
0
 40
0
 40
0
 40
0
 40
0
 40
1
 40
1
 40
1
 40
1
 10
65.218995
 20
12.944154
 30
0.0
 10
65.653727
 20
13.328334
 30
0.0
 10
65.977486
 20
13.826835
 30
0.0
 10
65.977486
 20
14.400227
 30
0.0
  0
LWPOLYLINE
  5
13d
100
AcDbEntity
  8
Layer_1
 62
7
100
AcDbPolyline
 90
2
 70
0
 10
11.764887
 20
16.614794
 30
0.0
 10
11.764887
 20
14.400227
 30
0.0
  0
SPLINE
  5
13e
100
AcDbEntity
  8
Layer_1
 62
7
100
AcDbSpline
 70
8
 71
3
 72
8
 73
4
 74
0
 40
0
 40
0
 40
0
 40
0
 40
1
 40
1
 40
1
 40
1
 10
65.977486
 20
16.614794
 30
0.0
 10
65.977483
 20
17.433780
 30
0.0
 10
65.376309
 20
18.048076
 30
0.0
 10
64.587844
 20
18.530391
 30
0.0
  0
SPLINE
  5
13f
100
AcDbEntity
  8
Layer_1
 62
7
100
AcDbSpline
 70
8
 71
3
 72
8
 73
4
 74
0
 40
0
 40
0
 40
0
 40
0
 40
1
 40
1
 40
1
 40
1
 10
64.587844
 20
18.530391
 30
0.0
 10
63.922422
 20
18.937446
 30
0.0
 10
62.946632
 20
19.274428
 30
0.0
 10
61.891608
 20
19.604466
 30
0.0
  0
SPLINE
  5
140
100
AcDbEntity
  8
Layer_1
 62
7
100
AcDbSpline
 70
8
 71
3
 72
8
 73
4
 74
0
 40
0
 40
0
 40
0
 40
0
 40
1
 40
1
 40
1
 40
1
 10
61.891608
 20
19.604466
 30
0.0
 10
62.952506
 20
25.416312
 30
0.0
 10
62.164188
 20
36.486907
 30
0.0
 10
47.701772
 20
48.582057
 30
0.0
  0
SPLINE
  5
141
100
AcDbEntity
  8
Layer_1
 62
7
100
AcDbSpline
 70
8
 71
3
 72
8
 73
4
 74
0
 40
0
 40
0
 40
0
 40
0
 40
1
 40
1
 40
1
 40
1
 10
47.701772
 20
48.582057
 30
0.0
 10
63.534617
 20
61.833402
 30
0.0
 10
62.958047
 20
73.828970
 30
0.0
 10
61.564961
 20
79.032359
 30
0.0
  0
SPLINE
  5
142
100
AcDbEntity
  8
Layer_1
 62
7
100
AcDbSpline
 70
8
 71
3
 72
8
 73
4
 74
0
 40
0
 40
0
 40
0
 40
0
 40
1
 40
1
 40
1
 40
1
 10
61.564961
 20
79.032359
 30
0.0
 10
62.705387
 20
79.370957
 30
0.0
 10
63.760297
 20
79.715509
 30
0.0
 10
64.477117
 20
80.134101
 30
0.0
  0
SPLINE
  5
143
100
AcDbEntity
  8
Layer_1
 62
7
100
AcDbSpline
 70
8
 71
3
 72
8
 73
4
 74
0
 40
0
 40
0
 40
0
 40
0
 40
1
 40
1
 40
1
 40
1
 10
64.477117
 20
80.134101
 30
0.0
 10
65.329095
 20
80.631638
 30
0.0
 10
65.977486
 20
81.254126
 30
0.0
 10
65.977486
 20
82.110614
 30
0.0
  0
SPLINE
  5
144
100
AcDbEntity
  8
Layer_1
 62
7
100
AcDbSpline
 70
8
 71
3
 72
8
 73
4
 74
0
 40
0
 40
0
 40
0
 40
0
 40
1
 40
1
 40
1
 40
1
 10
65.977486
 20
82.110614
 30
0.0
 10
65.977486
 20
82.684006
 30
0.0
 10
65.653727
 20
83.182479
 30
0.0
 10
65.218995
 20
83.566687
 30
0.0
  0
SPLINE
  5
145
100
AcDbEntity
  8
Layer_1
 62
7
100
AcDbSpline
 70
8
 71
3
 72
8
 73
4
 74
0
 40
0
 40
0
 40
0
 40
0
 40
1
 40
1
 40
1
 40
1
 10
65.218995
 20
83.566687
 30
0.0
 10
64.784265
 20
83.950894
 30
0.0
 10
64.211499
 20
84.271266
 30
0.0
 10
63.502707
 20
84.574318
 30
0.0
  0
SPLINE
  5
146
100
AcDbEntity
  8
Layer_1
 62
7
100
AcDbSpline
 70
8
 71
3
 72
8
 73
4
 74
0
 40
0
 40
0
 40
0
 40
0
 40
1
 40
1
 40
1
 40
1
 10
63.502707
 20
84.574318
 30
0.0
 10
62.085124
 20
85.180422
 30
0.0
 10
60.117386
 20
85.697518
 30
0.0
 10
57.695006
 20
86.135584
 30
0.0
  0
SPLINE
  5
147
100
AcDbEntity
  8
Layer_1
 62
7
100
AcDbSpline
 70
8
 71
3
 72
8
 73
4
 74
0
 40
0
 40
0
 40
0
 40
0
 40
1
 40
1
 40
1
 40
1
 10
57.695006
 20
86.135584
 30
0.0
 10
52.850239
 20
87.011688
 30
0.0
 10
46.208764
 20
87.547380
 30
0.0
 10
38.871187
 20
87.547380
 30
0.0
  0
LWPOLYLINE
  5
148
100
AcDbEntity
  8
Layer_1
 62
7
100
AcDbPolyline
 90
2
 70
0
 10
65.977486
 20
14.400227
 30
0.0
 10
65.977486
 20
16.614794
 30
0.0
  0
SPLINE
  5
149
100
AcDbEntity
  8
Layer_1
 62
7
100
AcDbSpline
 70
8
 71
3
 72
8
 73
4
 74
0
 40
0
 40
0
 40
0
 40
0
 40
1
 40
1
 40
1
 40
1
 10
38.871187
 20
86.246306
 30
0.0
 10
46.145166
 20
86.246306
 30
0.0
 10
52.731785
 20
85.712145
 30
0.0
 10
57.462474
 20
84.856677
 30
0.0
  0
SPLINE
  5
14a
100
AcDbEntity
  8
Layer_1
 62
7
100
AcDbSpline
 70
8
 71
3
 72
8
 73
4
 74
0
 40
0
 40
0
 40
0
 40
0
 40
1
 40
1
 40
1
 40
1
 10
57.462474
 20
84.856677
 30
0.0
 10
59.827819
 20
84.428929
 30
0.0
 10
61.733367
 20
83.917162
 30
0.0
 10
62.993356
 20
83.378438
 30
0.0
  0
SPLINE
  5
14b
100
AcDbEntity
  8
Layer_1
 62
7
100
AcDbSpline
 70
8
 71
3
 72
8
 73
4
 74
0
 40
0
 40
0
 40
0
 40
0
 40
1
 40
1
 40
1
 40
1
 10
62.993356
 20
83.378438
 30
0.0
 10
63.623350
 20
83.109146
 30
0.0
 10
64.090726
 20
82.831011
 30
0.0
 10
64.360851
 20
82.592277
 30
0.0
  0
SPLINE
  5
14c
100
AcDbEntity
  8
Layer_1
 62
7
100
AcDbSpline
 70
8
 71
3
 72
8
 73
4
 74
0
 40
0
 40
0
 40
0
 40
0
 40
1
 40
1
 40
1
 40
1
 10
64.360851
 20
82.592277
 30
0.0
 10
64.630964
 20
82.353600
 30
0.0
 10
64.676426
 20
82.197836
 30
0.0
 10
64.676426
 20
82.110614
 30
0.0
  0
SPLINE
  5
14d
100
AcDbEntity
  8
Layer_1
 62
7
100
AcDbSpline
 70
8
 71
3
 72
8
 73
4
 74
0
 40
0
 40
0
 40
0
 40
0
 40
1
 40
1
 40
1
 40
1
 10
64.676426
 20
82.110614
 30
0.0
 10
64.676426
 20
81.980220
 30
0.0
 10
64.499289
 20
81.655682
 30
0.0
 10
63.818283
 20
81.258009
 30
0.0
  0
SPLINE
  5
14e
100
AcDbEntity
  8
Layer_1
 62
7
100
AcDbSpline
 70
8
 71
3
 72
8
 73
4
 74
0
 40
0
 40
0
 40
0
 40
0
 40
1
 40
1
 40
1
 40
1
 10
63.818283
 20
81.258009
 30
0.0
 10
63.137282
 20
80.860309
 30
0.0
 10
62.060808
 20
80.450929
 30
0.0
 10
60.679134
 20
80.078740
 30
0.0
  0
LWPOLYLINE
  5
14f
100
AcDbEntity
  8
Layer_1
 62
7
100
AcDbPolyline
 90
1
 70
1
 10
38.871187
 20
87.547380
 30
0.0
  0
SPLINE
  5
150
100
AcDbEntity
  8
Layer_1
 62
7
100
AcDbSpline
 70
8
 71
3
 72
8
 73
4
 74
0
 40
0
 40
0
 40
0
 40
0
 40
1
 40
1
 40
1
 40
1
 10
60.225148
 20
79.264885
 30
0.0
 10
61.599424
 20
74.653937
 30
0.0
 10
63.064599
 20
62.684844
 30
0.0
 10
46.395179
 20
49.080331
 30
0.0
  0
LWPOLYLINE
  5
151
100
AcDbEntity
  8
Layer_1
 62
7
100
AcDbPolyline
 90
3
 70
0
 10
60.679134
 20
80.078740
 30
0.0
 10
60.031372
 20
79.901575
 30
0.0
 10
60.225148
 20
79.264885
 30
0.0
  0
SPLINE
  5
152
100
AcDbEntity
  8
Layer_1
 62
7
100
AcDbSpline
 70
8
 71
3
 72
8
 73
4
 74
0
 40
0
 40
0
 40
0
 40
0
 40
1
 40
1
 40
1
 40
1
 10
46.395179
 20
48.072699
 30
0.0
 10
61.568705
 20
35.690258
 30
0.0
 10
61.695660
 20
24.674060
 30
0.0
 10
60.579479
 20
19.311024
 30
0.0
  0
LWPOLYLINE
  5
153
100
AcDbEntity
  8
Layer_1
 62
7
100
AcDbPolyline
 90
3
 70
0
 10
46.395179
 20
49.080331
 30
0.0
 10
45.775100
 20
48.576529
 30
0.0
 10
46.395179
 20
48.072699
 30
0.0
  0
SPLINE
  5
154
100
AcDbEntity
  8
Layer_1
 62
7
100
AcDbSpline
 70
8
 71
3
 72
8
 73
4
 74
0
 40
0
 40
0
 40
0
 40
0
 40
1
 40
1
 40
1
 40
1
 10
61.038998
 20
18.552529
 30
0.0
 10
62.305183
 20
18.191764
 30
0.0
 10
63.290064
 20
17.794885
 30
0.0
 10
63.906863
 20
17.417565
 30
0.0
  0
SPLINE
  5
155
100
AcDbEntity
  8
Layer_1
 62
7
100
AcDbSpline
 70
8
 71
3
 72
8
 73
4
 74
0
 40
0
 40
0
 40
0
 40
0
 40
1
 40
1
 40
1
 40
1
 10
63.906863
 20
17.417565
 30
0.0
 10
64.523662
 20
17.040246
 30
0.0
 10
64.676424
 20
16.738072
 30
0.0
 10
64.676424
 20
16.614794
 30
0.0
  0
LWPOLYLINE
  5
156
100
AcDbEntity
  8
Layer_1
 62
7
100
AcDbPolyline
 90
3
 70
0
 10
60.579479
 20
19.311024
 30
0.0
 10
60.457674
 20
18.718639
 30
0.0
 10
61.038998
 20
18.552529
 30
0.0
  0
SPLINE
  5
157
100
AcDbEntity
  8
Layer_1
 62
7
100
AcDbSpline
 70
8
 71
3
 72
8
 73
4
 74
0
 40
0
 40
0
 40
0
 40
0
 40
1
 40
1
 40
1
 40
1
 10
64.676424
 20
14.400227
 30
0.0
 10
64.676424
 20
14.312920
 30
0.0
 10
64.630984
 20
14.162683
 30
0.0
 10
64.360848
 20
13.924091
 30
0.0
  0
SPLINE
  5
158
100
AcDbEntity
  8
Layer_1
 62
7
100
AcDbSpline
 70
8
 71
3
 72
8
 73
4
 74
0
 40
0
 40
0
 40
0
 40
0
 40
1
 40
1
 40
1
 40
1
 10
64.360848
 20
13.924091
 30
0.0
 10
64.090735
 20
13.685414
 30
0.0
 10
63.623347
 20
13.401751
 30
0.0
 10
62.993353
 20
13.132375
 30
0.0
  0
SPLINE
  5
159
100
AcDbEntity
  8
Layer_1
 62
7
100
AcDbSpline
 70
8
 71
3
 72
8
 73
4
 74
0
 40
0
 40
0
 40
0
 40
0
 40
1
 40
1
 40
1
 40
1
 10
62.993353
 20
13.132375
 30
0.0
 10
61.733364
 20
12.593650
 30
0.0
 10
59.827816
 20
12.081912
 30
0.0
 10
57.462471
 20
11.654164
 30
0.0
  0
SPLINE
  5
15a
100
AcDbEntity
  8
Layer_1
 62
7
100
AcDbSpline
 70
8
 71
3
 72
8
 73
4
 74
0
 40
0
 40
0
 40
0
 40
0
 40
1
 40
1
 40
1
 40
1
 10
57.462471
 20
11.654164
 30
0.0
 10
52.731782
 20
10.798668
 30
0.0
 10
46.145163
 20
10.264507
 30
0.0
 10
38.871184
 20
10.264507
 30
0.0
  0
SPLINE
  5
15b
100
AcDbEntity
  8
Layer_1
 62
7
100
AcDbSpline
 70
8
 71
3
 72
8
 73
4
 74
0
 40
0
 40
0
 40
0
 40
0
 40
1
 40
1
 40
1
 40
1
 10
38.871184
 20
10.264507
 30
0.0
 10
31.597203
 20
10.264507
 30
0.0
 10
25.010583
 20
10.798668
 30
0.0
 10
20.279894
 20
11.654164
 30
0.0
  0
SPLINE
  5
15c
100
AcDbEntity
  8
Layer_1
 62
7
100
AcDbSpline
 70
8
 71
3
 72
8
 73
4
 74
0
 40
0
 40
0
 40
0
 40
0
 40
1
 40
1
 40
1
 40
1
 10
20.279894
 20
11.654164
 30
0.0
 10
17.914549
 20
12.081912
 30
0.0
 10
16.009002
 20
12.593650
 30
0.0
 10
14.749013
 20
13.132375
 30
0.0
  0
SPLINE
  5
15d
100
AcDbEntity
  8
Layer_1
 62
7
100
AcDbSpline
 70
8
 71
3
 72
8
 73
4
 74
0
 40
0
 40
0
 40
0
 40
0
 40
1
 40
1
 40
1
 40
1
 10
14.749013
 20
13.132375
 30
0.0
 10
14.119019
 20
13.401666
 30
0.0
 10
13.651642
 20
13.685357
 30
0.0
 10
13.381518
 20
13.924091
 30
0.0
  0
SPLINE
  5
15e
100
AcDbEntity
  8
Layer_1
 62
7
100
AcDbSpline
 70
8
 71
3
 72
8
 73
4
 74
0
 40
0
 40
0
 40
0
 40
0
 40
1
 40
1
 40
1
 40
1
 10
13.381518
 20
13.924091
 30
0.0
 10
13.111393
 20
14.162769
 30
0.0
 10
13.065942
 20
14.312976
 30
0.0
 10
13.065942
 20
14.400227
 30
0.0
  0
LWPOLYLINE
  5
15f
100
AcDbEntity
  8
Layer_1
 62
7
100
AcDbPolyline
 90
2
 70
0
 10
64.676424
 20
16.614794
 30
0.0
 10
64.676424
 20
14.400227
 30
0.0
  0
SPLINE
  5
160
100
AcDbEntity
  8
Layer_1
 62
7
100
AcDbSpline
 70
8
 71
3
 72
8
 73
4
 74
0
 40
0
 40
0
 40
0
 40
0
 40
1
 40
1
 40
1
 40
1
 10
13.065942
 20
16.614794
 30
0.0
 10
13.065942
 20
16.738101
 30
0.0
 10
13.218613
 20
17.040246
 30
0.0
 10
13.835504
 20
17.417565
 30
0.0
  0
SPLINE
  5
161
100
AcDbEntity
  8
Layer_1
 62
7
100
AcDbSpline
 70
8
 71
3
 72
8
 73
4
 74
0
 40
0
 40
0
 40
0
 40
0
 40
1
 40
1
 40
1
 40
1
 10
13.835504
 20
17.417565
 30
0.0
 10
14.452393
 20
17.794885
 30
0.0
 10
15.436791
 20
18.191764
 30
0.0
 10
16.703368
 20
18.552529
 30
0.0
  0
LWPOLYLINE
  5
162
100
AcDbEntity
  8
Layer_1
 62
7
100
AcDbPolyline
 90
2
 70
0
 10
13.065942
 20
14.400227
 30
0.0
 10
13.065942
 20
16.614794
 30
0.0
  0
SPLINE
  5
163
100
AcDbEntity
  8
Layer_1
 62
7
100
AcDbSpline
 70
8
 71
3
 72
8
 73
4
 74
0
 40
0
 40
0
 40
0
 40
0
 40
1
 40
1
 40
1
 40
1
 10
17.162890
 20
19.311024
 30
0.0
 10
16.045192
 20
24.674769
 30
0.0
 10
16.172101
 20
35.691052
 30
0.0
 10
31.347196
 20
48.072699
 30
0.0
  0
LWPOLYLINE
  5
164
100
AcDbEntity
  8
Layer_1
 62
7
100
AcDbPolyline
 90
3
 70
0
 10
16.703368
 20
18.552529
 30
0.0
 10
17.284692
 20
18.718639
 30
0.0
 10
17.162890
 20
19.311024
 30
0.0
  0
SPLINE
  5
165
100
AcDbEntity
  8
Layer_1
 62
7
100
AcDbSpline
 70
8
 71
3
 72
8
 73
4
 74
0
 40
0
 40
0
 40
0
 40
0
 40
1
 40
1
 40
1
 40
1
 10
31.347196
 20
49.080331
 30
0.0
 10
14.674558
 20
62.687254
 30
0.0
 10
16.141395
 20
74.653087
 30
0.0
 10
17.517224
 20
79.264885
 30
0.0
  0
LWPOLYLINE
  5
166
100
AcDbEntity
  8
Layer_1
 62
7
100
AcDbPolyline
 90
3
 70
0
 10
31.347196
 20
48.072699
 30
0.0
 10
31.967274
 20
48.576529
 30
0.0
 10
31.347196
 20
49.080331
 30
0.0
  0
SPLINE
  5
167
100
AcDbEntity
  8
Layer_1
 62
7
100
AcDbSpline
 70
8
 71
3
 72
8
 73
4
 74
0
 40
0
 40
0
 40
0
 40
0
 40
1
 40
1
 40
1
 40
1
 10
17.063238
 20
80.078740
 30
0.0
 10
15.681260
 20
80.450532
 30
0.0
 10
14.605141
 20
80.860252
 30
0.0
 10
13.924090
 20
81.258009
 30
0.0
  0
SPLINE
  5
168
100
AcDbEntity
  8
Layer_1
 62
7
100
AcDbSpline
 70
8
 71
3
 72
8
 73
4
 74
0
 40
0
 40
0
 40
0
 40
0
 40
1
 40
1
 40
1
 40
1
 10
13.924090
 20
81.258009
 30
0.0
 10
13.243039
 20
81.655739
 30
0.0
 10
13.065945
 20
81.980334
 30
0.0
 10
13.065945
 20
82.110614
 30
0.0
  0
SPLINE
  5
169
100
AcDbEntity
  8
Layer_1
 62
7
100
AcDbSpline
 70
8
 71
3
 72
8
 73
4
 74
0
 40
0
 40
0
 40
0
 40
0
 40
1
 40
1
 40
1
 40
1
 10
13.065945
 20
82.110614
 30
0.0
 10
13.065945
 20
82.197921
 30
0.0
 10
13.111396
 20
82.353543
 30
0.0
 10
13.381521
 20
82.592277
 30
0.0
  0
SPLINE
  5
16a
100
AcDbEntity
  8
Layer_1
 62
7
100
AcDbSpline
 70
8
 71
3
 72
8
 73
4
 74
0
 40
0
 40
0
 40
0
 40
0
 40
1
 40
1
 40
1
 40
1
 10
13.381521
 20
82.592277
 30
0.0
 10
13.651645
 20
82.830954
 30
0.0
 10
14.119021
 20
83.109090
 30
0.0
 10
14.749016
 20
83.378438
 30
0.0
  0
SPLINE
  5
16b
100
AcDbEntity
  8
Layer_1
 62
7
100
AcDbSpline
 70
8
 71
3
 72
8
 73
4
 74
0
 40
0
 40
0
 40
0
 40
0
 40
1
 40
1
 40
1
 40
1
 10
14.749016
 20
83.378438
 30
0.0
 10
16.009005
 20
83.917162
 30
0.0
 10
17.914552
 20
84.428929
 30
0.0
 10
20.279897
 20
84.856677
 30
0.0
  0
SPLINE
  5
16c
100
AcDbEntity
  8
Layer_1
 62
7
100
AcDbSpline
 70
8
 71
3
 72
8
 73
4
 74
0
 40
0
 40
0
 40
0
 40
0
 40
1
 40
1
 40
1
 40
1
 10
20.279897
 20
84.856677
 30
0.0
 10
25.010586
 20
85.712145
 30
0.0
 10
31.597206
 20
86.246306
 30
0.0
 10
38.871187
 20
86.246306
 30
0.0
  0
LWPOLYLINE
  5
16d
100
AcDbEntity
  8
Layer_1
 62
7
100
AcDbPolyline
 90
3
 70
0
 10
17.517224
 20
79.264885
 30
0.0
 10
17.710999
 20
79.901575
 30
0.0
 10
17.063238
 20
80.078740
 30
0.0
  0
LWPOLYLINE
  5
16e
100
AcDbEntity
  8
Layer_1
 62
7
100
AcDbPolyline
 90
1
 70
1
 10
38.871187
 20
86.246306
 30
0.0
  0
SPLINE
  5
16f
100
AcDbEntity
  8
Layer_1
 62
7
100
AcDbSpline
 70
8
 71
3
 72
8
 73
4
 74
0
 40
0
 40
0
 40
0
 40
0
 40
1
 40
1
 40
1
 40
1
 10
20.617618
 20
78.434419
 30
0.0
 10
19.443151
 20
74.635030
 30
0.0
 10
18.049588
 20
63.122854
 30
0.0
 10
35.311269
 20
50.054740
 30
0.0
  0
LWPOLYLINE
  5
170
100
AcDbEntity
  8
Layer_1
 62
7
100
AcDbPolyline
 90
2
 70
0
 10
20.756028
 20
78.893943
 30
0.0
 10
20.617618
 20
78.434419
 30
0.0
  0
SPLINE
  5
171
100
AcDbEntity
  8
Layer_1
 62
7
100
AcDbSpline
 70
8
 71
3
 72
8
 73
4
 74
0
 40
0
 40
0
 40
0
 40
0
 40
1
 40
1
 40
1
 40
1
 10
35.316939
 20
50.054740
 30
0.0
 10
35.764155
 20
49.720054
 30
0.0
 10
36.046060
 20
49.157943
 30
0.0
 10
36.047747
 20
48.582057
 30
0.0
  0
SPLINE
  5
172
100
AcDbEntity
  8
Layer_1
 62
7
100
AcDbSpline
 70
8
 71
3
 72
8
 73
4
 74
0
 40
0
 40
0
 40
0
 40
0
 40
1
 40
1
 40
1
 40
1
 10
36.047747
 20
48.582057
 30
0.0
 10
36.048915
 20
48.005461
 30
0.0
 10
35.770717
 20
47.445420
 30
0.0
 10
35.311402
 20
47.098290
 30
0.0
  0
SPLINE
  5
173
100
AcDbEntity
  8
Layer_1
 62
7
100
AcDbSpline
 70
8
 71
3
 72
8
 73
4
 74
0
 40
0
 40
0
 40
0
 40
0
 40
1
 40
1
 40
1
 40
1
 10
35.311402
 20
47.098290
 30
0.0
 10
19.690243
 20
35.272970
 30
0.0
 10
19.321631
 20
24.723241
 30
0.0
 10
20.291103
 20
20.003074
 30
0.0
  0
LWPOLYLINE
  5
174
100
AcDbEntity
  8
Layer_1
 62
7
100
AcDbPolyline
 90
2
 70
0
 10
35.311269
 20
50.054740
 30
0.0
 10
35.316939
 20
50.054740
 30
0.0
  0
SPLINE
  5
175
100
AcDbEntity
  8
Layer_1
 62
7
100
AcDbSpline
 70
8
 71
3
 72
8
 73
4
 74
0
 40
0
 40
0
 40
0
 40
0
 40
1
 40
1
 40
1
 40
1
 10
21.038520
 20
19.493688
 30
0.0
 10
22.175497
 20
19.683893
 30
0.0
 10
23.405415
 20
19.851647
 30
0.0
 10
24.720237
 20
20.003046
 30
0.0
  0
LWPOLYLINE
  5
176
100
AcDbEntity
  8
Layer_1
 62
7
100
AcDbPolyline
 90
3
 70
0
 10
20.291103
 20
20.003074
 30
0.0
 10
20.418441
 20
19.388523
 30
0.0
 10
21.038520
 20
19.493688
 30
0.0
  0
SPLINE
  5
177
100
AcDbEntity
  8
Layer_1
 62
7
100
AcDbSpline
 70
8
 71
3
 72
8
 73
4
 74
0
 40
0
 40
0
 40
0
 40
0
 40
1
 40
1
 40
1
 40
1
 10
25.152078
 20
20.241156
 30
0.0
 10
26.185889
 20
21.507420
 30
0.0
 10
29.274507
 20
23.735792
 30
0.0
 10
36.429759
 20
27.953405
 30
0.0
  0
SPLINE
  5
178
100
AcDbEntity
  8
Layer_1
 62
7
100
AcDbSpline
 70
8
 71
3
 72
8
 73
4
 74
0
 40
0
 40
0
 40
0
 40
0
 40
1
 40
1
 40
1
 40
1
 10
36.429759
 20
27.953405
 30
0.0
 10
36.454987
 20
27.964743
 30
0.0
 10
36.829036
 20
28.078980
 30
0.0
 10
37.282369
 20
28.130570
 30
0.0
  0
SPLINE
  5
179
100
AcDbEntity
  8
Layer_1
 62
7
100
AcDbSpline
 70
8
 71
3
 72
8
 73
4
 74
0
 40
0
 40
0
 40
0
 40
0
 40
1
 40
1
 40
1
 40
1
 10
37.282369
 20
28.130570
 30
0.0
 10
39.367906
 20
28.368113
 30
0.0
 10
41.475964
 20
27.886507
 30
0.0
 10
43.283844
 20
26.801830
 30
0.0
  0
SPLINE
  5
17a
100
AcDbEntity
  8
Layer_1
 62
7
100
AcDbSpline
 70
8
 71
3
 72
8
 73
4
 74
0
 40
0
 40
0
 40
0
 40
0
 40
1
 40
1
 40
1
 40
1
 10
43.283844
 20
26.801830
 30
0.0
 10
49.066564
 20
23.332479
 30
0.0
 10
51.659922
 20
21.390831
 30
0.0
 10
52.590561
 20
20.241156
 30
0.0
  0
LWPOLYLINE
  5
17b
100
AcDbEntity
  8
Layer_1
 62
7
100
AcDbPolyline
 90
3
 70
0
 10
24.720237
 20
20.003046
 30
0.0
 10
24.985985
 20
20.036211
 30
0.0
 10
25.152078
 20
20.241156
 30
0.0
  0
SPLINE
  5
17c
100
AcDbEntity
  8
Layer_1
 62
7
100
AcDbSpline
 70
8
 71
3
 72
8
 73
4
 74
0
 40
0
 40
0
 40
0
 40
0
 40
1
 40
1
 40
1
 40
1
 10
53.022420
 20
20.003046
 30
0.0
 10
54.335924
 20
19.850825
 30
0.0
 10
55.573159
 20
19.677458
 30
0.0
 10
56.709673
 20
19.488161
 30
0.0
  0
LWPOLYLINE
  5
17d
100
AcDbEntity
  8
Layer_1
 62
7
100
AcDbPolyline
 90
3
 70
0
 10
52.590561
 20
20.241156
 30
0.0
 10
52.762199
 20
20.036211
 30
0.0
 10
53.022420
 20
20.003046
 30
0.0
  0
SPLINE
  5
17e
100
AcDbEntity
  8
Layer_1
 62
7
100
AcDbSpline
 70
8
 71
3
 72
8
 73
4
 74
0
 40
0
 40
0
 40
0
 40
0
 40
1
 40
1
 40
1
 40
1
 10
57.451440
 20
20.003017
 30
0.0
 10
58.415977
 20
24.711789
 30
0.0
 10
58.057091
 20
35.270447
 30
0.0
 10
42.431140
 20
47.103789
 30
0.0
  0
LWPOLYLINE
  5
17f
100
AcDbEntity
  8
Layer_1
 62
7
100
AcDbPolyline
 90
4
 70
0
 10
56.709673
 20
19.488161
 30
0.0
 10
57.468165
 20
19.366271
 30
0.0
 10
57.468165
 20
20.130293
 30
0.0
 10
57.451440
 20
20.003017
 30
0.0
  0
SPLINE
  5
180
100
AcDbEntity
  8
Layer_1
 62
7
100
AcDbSpline
 70
8
 71
3
 72
8
 73
4
 74
0
 40
0
 40
0
 40
0
 40
0
 40
1
 40
1
 40
1
 40
1
 10
42.425471
 20
47.103789
 30
0.0
 10
41.969799
 20
47.447575
 30
0.0
 10
41.694663
 20
48.002031
 30
0.0
 10
41.694663
 20
48.576472
 30
0.0
  0
SPLINE
  5
181
100
AcDbEntity
  8
Layer_1
 62
7
100
AcDbSpline
 70
8
 71
3
 72
8
 73
4
 74
0
 40
0
 40
0
 40
0
 40
0
 40
1
 40
1
 40
1
 40
1
 10
41.694663
 20
48.576472
 30
0.0
 10
41.694663
 20
49.150942
 30
0.0
 10
41.973450
 20
49.708743
 30
0.0
 10
42.431007
 20
50.054683
 30
0.0
  0
LWPOLYLINE
  5
182
100
AcDbEntity
  8
Layer_1
 62
7
100
AcDbPolyline
 90
2
 70
0
 10
42.431140
 20
47.103789
 30
0.0
 10
42.425471
 20
47.103789
 30
0.0
  0
SPLINE
  5
183
100
AcDbEntity
  8
Layer_1
 62
7
100
AcDbSpline
 70
8
 71
3
 72
8
 73
4
 74
0
 40
0
 40
0
 40
0
 40
0
 40
1
 40
1
 40
1
 40
1
 10
42.431007
 20
50.060353
 30
0.0
 10
59.616713
 20
63.073701
 30
0.0
 10
58.261279
 20
74.636816
 30
0.0
 10
57.119123
 20
78.428948
 30
0.0
  0
LWPOLYLINE
  5
184
100
AcDbEntity
  8
Layer_1
 62
7
100
AcDbPolyline
 90
2
 70
0
 10
42.431007
 20
50.054683
 30
0.0
 10
42.431007
 20
50.060353
 30
0.0
  0
SPLINE
  5
185
100
AcDbEntity
  8
Layer_1
 62
7
100
AcDbSpline
 70
8
 71
3
 72
8
 73
4
 74
0
 40
0
 40
0
 40
0
 40
0
 40
1
 40
1
 40
1
 40
1
 10
54.339824
 20
78.888331
 30
0.0
 10
50.008899
 20
78.317773
 30
0.0
 10
44.661411
 20
77.980365
 30
0.0
 10
38.871075
 20
77.980365
 30
0.0
  0
SPLINE
  5
186
100
AcDbEntity
  8
Layer_1
 62
7
100
AcDbSpline
 70
8
 71
3
 72
8
 73
4
 74
0
 40
0
 40
0
 40
0
 40
0
 40
1
 40
1
 40
1
 40
1
 10
38.871075
 20
77.980365
 30
0.0
 10
33.080736
 20
77.980365
 30
0.0
 10
27.733257
 20
78.317773
 30
0.0
 10
23.402324
 20
78.888331
 30
0.0
  0
LWPOLYLINE
  5
187
100
AcDbEntity
  8
Layer_1
 62
7
100
AcDbPolyline
 90
4
 70
0
 10
57.119123
 20
78.428948
 30
0.0
 10
56.980708
 20
78.894000
 30
0.0
 10
54.384130
 20
78.894000
 30
0.0
 10
54.339824
 20
78.888331
 30
0.0
  0
LWPOLYLINE
  5
188
100
AcDbEntity
  8
Layer_1
 62
7
100
AcDbPolyline
 90
3
 70
0
 10
23.402324
 20
78.888331
 30
0.0
 10
23.358033
 20
78.894000
 30
0.0
 10
20.756028
 20
78.893943
 30
0.0
  0
SPLINE
  5
189
100
AcDbEntity
  8
Layer_1
 62
7
100
AcDbSpline
 70
8
 71
3
 72
8
 73
4
 74
0
 40
0
 40
0
 40
0
 40
0
 40
1
 40
1
 40
1
 40
1
 10
23.313853
 20
77.592898
 30
0.0
 10
27.703123
 20
77.018570
 30
0.0
 10
33.061144
 20
76.679376
 30
0.0
 10
38.871187
 20
76.679376
 30
0.0
  0
SPLINE
  5
18a
100
AcDbEntity
  8
Layer_1
 62
7
100
AcDbSpline
 70
8
 71
3
 72
8
 73
4
 74
0
 40
0
 40
0
 40
0
 40
0
 40
1
 40
1
 40
1
 40
1
 10
38.871187
 20
76.679376
 30
0.0
 10
44.679166
 20
76.679376
 30
0.0
 10
50.034580
 20
77.018939
 30
0.0
 10
54.422983
 20
77.592898
 30
0.0
  0
LWPOLYLINE
  5
18b
100
AcDbEntity
  8
Layer_1
 62
7
100
AcDbPolyline
 90
2
 70
0
 10
21.785802
 20
77.592898
 30
0.0
 10
23.313853
 20
77.592898
 30
0.0
  0
SPLINE
  5
18c
100
AcDbEntity
  8
Layer_1
 62
7
100
AcDbSpline
 70
8
 71
3
 72
8
 73
4
 74
0
 40
0
 40
0
 40
0
 40
0
 40
1
 40
1
 40
1
 40
1
 10
55.945497
 20
77.592898
 30
0.0
 10
56.954665
 20
73.873020
 30
0.0
 10
58.002922
 20
63.482173
 30
0.0
 10
41.644930
 20
51.095594
 30
0.0
  0
SPLINE
  5
18d
100
AcDbEntity
  8
Layer_1
 62
7
100
AcDbSpline
 70
8
 71
3
 72
8
 73
4
 74
0
 40
0
 40
0
 40
0
 40
0
 40
1
 40
1
 40
1
 40
1
 10
41.644930
 20
51.095594
 30
0.0
 10
40.858308
 20
50.500828
 30
0.0
 10
40.393701
 20
49.564063
 30
0.0
 10
40.393701
 20
48.576529
 30
0.0
  0
SPLINE
  5
18e
100
AcDbEntity
  8
Layer_1
 62
7
100
AcDbSpline
 70
8
 71
3
 72
8
 73
4
 74
0
 40
0
 40
0
 40
0
 40
0
 40
1
 40
1
 40
1
 40
1
 10
40.393701
 20
48.576529
 30
0.0
 10
40.393701
 20
47.588995
 30
0.0
 10
40.858024
 20
46.656709
 30
0.0
 10
41.644930
 20
46.062992
 30
0.0
  0
SPLINE
  5
18f
100
AcDbEntity
  8
Layer_1
 62
7
100
AcDbSpline
 70
8
 71
3
 72
8
 73
4
 74
0
 40
0
 40
0
 40
0
 40
0
 40
1
 40
1
 40
1
 40
1
 10
41.644930
 20
46.062992
 30
0.0
 10
56.430054
 20
34.866397
 30
0.0
 10
56.979266
 20
25.392784
 30
0.0
 10
56.216781
 20
20.872290
 30
0.0
  0
SPLINE
  5
190
100
AcDbEntity
  8
Layer_1
 62
7
100
AcDbSpline
 70
8
 71
3
 72
8
 73
4
 74
0
 40
0
 40
0
 40
0
 40
0
 40
1
 40
1
 40
1
 40
1
 10
56.216781
 20
20.872290
 30
0.0
 10
55.284123
 20
21.017707
 30
0.0
 10
54.328584
 20
21.160517
 30
0.0
 10
53.293552
 20
21.281981
 30
0.0
  0
SPLINE
  5
191
100
AcDbEntity
  8
Layer_1
 62
7
100
AcDbSpline
 70
8
 71
3
 72
8
 73
4
 74
0
 40
0
 40
0
 40
0
 40
0
 40
1
 40
1
 40
1
 40
1
 10
53.293552
 20
21.281981
 30
0.0
 10
52.042708
 20
22.740945
 30
0.0
 10
49.581717
 20
24.538054
 30
0.0
 10
43.953616
 20
27.914627
 30
0.0
  0
SPLINE
  5
192
100
AcDbEntity
  8
Layer_1
 62
7
100
AcDbSpline
 70
8
 71
3
 72
8
 73
4
 74
0
 40
0
 40
0
 40
0
 40
0
 40
1
 40
1
 40
1
 40
1
 10
43.953616
 20
27.914627
 30
0.0
 10
41.908020
 20
29.141858
 30
0.0
 10
39.512132
 20
29.691638
 30
0.0
 10
37.132750
 20
29.420532
 30
0.0
  0
SPLINE
  5
193
100
AcDbEntity
  8
Layer_1
 62
7
100
AcDbSpline
 70
8
 71
3
 72
8
 73
4
 74
0
 40
0
 40
0
 40
0
 40
0
 40
1
 40
1
 40
1
 40
1
 10
37.132750
 20
29.420532
 30
0.0
 10
36.612870
 20
29.361288
 30
0.0
 10
36.208355
 20
29.312816
 30
0.0
 10
35.820621
 20
29.110479
 30
0.0
  0
LWPOLYLINE
  5
194
100
AcDbEntity
  8
Layer_1
 62
7
100
AcDbPolyline
 90
2
 70
0
 10
54.422983
 20
77.592898
 30
0.0
 10
55.945497
 20
77.592898
 30
0.0
  0
SPLINE
  5
195
100
AcDbEntity
  8
Layer_1
 62
7
100
AcDbSpline
 70
8
 71
3
 72
8
 73
4
 74
0
 40
0
 40
0
 40
0
 40
0
 40
1
 40
1
 40
1
 40
1
 10
35.792841
 20
29.093471
 30
0.0
 10
28.777039
 20
24.959707
 30
0.0
 10
25.856889
 20
22.896595
 30
0.0
 10
24.465332
 20
21.281584
 30
0.0
  0
SPLINE
  5
196
100
AcDbEntity
  8
Layer_1
 62
7
100
AcDbSpline
 70
8
 71
3
 72
8
 73
4
 74
0
 40
0
 40
0
 40
0
 40
0
 40
1
 40
1
 40
1
 40
1
 10
24.465332
 20
21.281584
 30
0.0
 10
23.424289
 20
21.160261
 30
0.0
 10
22.462667
 20
21.018246
 30
0.0
 10
21.525494
 20
20.871893
 30
0.0
  0
SPLINE
  5
197
100
AcDbEntity
  8
Layer_1
 62
7
100
AcDbSpline
 70
8
 71
3
 72
8
 73
4
 74
0
 40
0
 40
0
 40
0
 40
0
 40
1
 40
1
 40
1
 40
1
 10
21.525494
 20
20.871893
 30
0.0
 10
20.759025
 20
25.401458
 30
0.0
 10
21.316079
 20
34.873058
 30
0.0
 10
36.097345
 20
46.062595
 30
0.0
  0
SPLINE
  5
198
100
AcDbEntity
  8
Layer_1
 62
7
100
AcDbSpline
 70
8
 71
3
 72
8
 73
4
 74
0
 40
0
 40
0
 40
0
 40
0
 40
1
 40
1
 40
1
 40
1
 10
36.097345
 20
46.062595
 30
0.0
 10
36.886980
 20
46.659345
 30
0.0
 10
37.350581
 20
47.597102
 30
0.0
 10
37.348574
 20
48.587187
 30
0.0
  0
SPLINE
  5
199
100
AcDbEntity
  8
Layer_1
 62
7
100
AcDbSpline
 70
8
 71
3
 72
8
 73
4
 74
0
 40
0
 40
0
 40
0
 40
0
 40
1
 40
1
 40
1
 40
1
 10
37.348574
 20
48.587187
 30
0.0
 10
37.345740
 20
49.576507
 30
0.0
 10
36.876059
 20
50.508255
 30
0.0
 10
36.091809
 20
51.095197
 30
0.0
  0
SPLINE
  5
19a
100
AcDbEntity
  8
Layer_1
 62
7
100
AcDbSpline
 70
8
 71
3
 72
8
 73
4
 74
0
 40
0
 40
0
 40
0
 40
0
 40
1
 40
1
 40
1
 40
1
 10
36.091809
 20
51.095197
 30
0.0
 10
19.656469
 20
63.539490
 30
0.0
 10
20.748467
 20
73.876309
 30
0.0
 10
21.785706
 20
77.592501
 30
0.0
  0
LWPOLYLINE
  5
19b
100
AcDbEntity
  8
Layer_1
 62
7
100
AcDbPolyline
 90
3
 70
0
 10
35.820621
 20
29.110479
 30
0.0
 10
35.803896
 20
29.099140
 30
0.0
 10
35.792841
 20
29.093471
 30
0.0
  0
SPLINE
  5
19c
100
AcDbEntity
  8
Layer_1
 62
7
100
AcDbSpline
 70
8
 71
3
 72
8
 73
4
 74
0
 40
0
 40
0
 40
0
 40
0
 40
1
 40
1
 40
1
 40
1
 10
65.279123
 20
18.470750
 30
0.0
 10
66.619392
 20
24.147439
 30
0.0
 10
66.331069
 20
35.741906
 30
0.0
 10
48.568618
 20
48.519496
 30
0.0
  0
SPLINE
  5
19d
100
AcDbEntity
  8
Layer_1
 62
7
100
AcDbSpline
 70
8
 71
3
 72
8
 73
4
 74
0
 40
0
 40
0
 40
0
 40
0
 40
1
 40
1
 40
1
 40
1
 10
48.568618
 20
48.519496
 30
0.0
 10
68.082168
 20
62.558050
 30
0.0
 10
66.507007
 20
75.167546
 30
0.0
 10
64.849861
 20
80.068762
 30
0.0
  0
SPLINE
  5
19e
100
AcDbEntity
  8
Layer_1
 62
7
100
AcDbSpline
 70
8
 71
3
 72
8
 73
4
 74
0
 40
0
 40
0
 40
0
 40
0
 40
1
 40
1
 40
1
 40
1
 10
64.849861
 20
80.068762
 30
0.0
 10
68.129141
 20
80.847468
 30
0.0
 10
70.044205
 20
81.783694
 30
0.0
 10
70.044205
 20
82.792176
 30
0.0
  0
SPLINE
  5
19f
100
AcDbEntity
  8
Layer_1
 62
7
100
AcDbSpline
 70
8
 71
3
 72
8
 73
4
 74
0
 40
0
 40
0
 40
0
 40
0
 40
1
 40
1
 40
1
 40
1
 10
70.044205
 20
82.792176
 30
0.0
 10
70.044205
 20
85.492885
 30
0.0
 10
56.310849
 20
87.682025
 30
0.0
 10
39.370065
 20
87.682025
 30
0.0
  0
SPLINE
  5
1a0
100
AcDbEntity
  8
Layer_1
 62
7
100
AcDbSpline
 70
8
 71
3
 72
8
 73
4
 74
0
 40
0
 40
0
 40
0
 40
0
 40
1
 40
1
 40
1
 40
1
 10
39.370065
 20
87.682025
 30
0.0
 10
22.429287
 20
87.682025
 30
0.0
 10
8.695934
 20
85.492885
 30
0.0
 10
8.695934
 20
82.792176
 30
0.0
  0
SPLINE
  5
1a1
100
AcDbEntity
  8
Layer_1
 62
7
100
AcDbSpline
 70
8
 71
3
 72
8
 73
4
 74
0
 40
0
 40
0
 40
0
 40
0
 40
1
 40
1
 40
1
 40
1
 10
8.695934
 20
82.792176
 30
0.0
 10
8.695934
 20
81.783694
 30
0.0
 10
10.610993
 20
80.846617
 30
0.0
 10
13.891193
 20
80.068762
 30
0.0
  0
SPLINE
  5
1a2
100
AcDbEntity
  8
Layer_1
 62
7
100
AcDbSpline
 70
8
 71
3
 72
8
 73
4
 74
0
 40
0
 40
0
 40
0
 40
0
 40
1
 40
1
 40
1
 40
1
 10
13.891193
 20
80.068762
 30
0.0
 10
12.232210
 20
75.166724
 30
0.0
 10
10.654288
 20
62.560517
 30
0.0
 10
30.171515
 20
48.519496
 30
0.0
  0
SPLINE
  5
1a3
100
AcDbEntity
  8
Layer_1
 62
7
100
AcDbSpline
 70
8
 71
3
 72
8
 73
4
 74
0
 40
0
 40
0
 40
0
 40
0
 40
1
 40
1
 40
1
 40
1
 10
30.171515
 20
48.519496
 30
0.0
 10
12.407224
 20
35.742728
 30
0.0
 10
12.119827
 20
24.148233
 30
0.0
 10
13.461937
 20
18.470750
 30
0.0
  0
SPLINE
  5
1a4
100
AcDbEntity
  8
Layer_1
 62
7
100
AcDbSpline
 70
8
 71
3
 72
8
 73
4
 74
0
 40
0
 40
0
 40
0
 40
0
 40
1
 40
1
 40
1
 40
1
 10
13.461937
 20
18.470750
 30
0.0
 10
10.447951
 20
17.713984
 30
0.0
 10
8.695934
 20
16.816734
 30
0.0
 10
8.695934
 20
15.853720
 30
0.0
  0
LWPOLYLINE
  5
1a5
100
AcDbEntity
  8
Layer_1
 62
7
100
AcDbPolyline
 90
2
 70
0
 10
21.785706
 20
77.592501
 30
0.0
 10
21.785802
 20
77.592898
 30
0.0
  0
SPLINE
  5
1a6
100
AcDbEntity
  8
Layer_1
 62
7
100
AcDbSpline
 70
8
 71
3
 72
8
 73
4
 74
0
 40
0
 40
0
 40
0
 40
0
 40
1
 40
1
 40
1
 40
1
 10
8.695934
 20
13.585776
 30
0.0
 10
8.695934
 20
10.885068
 30
0.0
 10
22.429289
 20
8.695956
 30
0.0
 10
39.370065
 20
8.695956
 30
0.0
  0
SPLINE
  5
1a7
100
AcDbEntity
  8
Layer_1
 62
7
100
AcDbSpline
 70
8
 71
3
 72
8
 73
4
 74
0
 40
0
 40
0
 40
0
 40
0
 40
1
 40
1
 40
1
 40
1
 10
39.370065
 20
8.695956
 30
0.0
 10
56.310849
 20
8.695956
 30
0.0
 10
70.044208
 20
10.885068
 30
0.0
 10
70.044208
 20
13.585776
 30
0.0
  0
LWPOLYLINE
  5
1a8
100
AcDbEntity
  8
Layer_1
 62
7
100
AcDbPolyline
 90
2
 70
0
 10
8.695934
 20
15.853720
 30
0.0
 10
8.695934
 20
13.585776
 30
0.0
  0
SPLINE
  5
1a9
100
AcDbEntity
  8
Layer_1
 62
7
100
AcDbSpline
 70
8
 71
3
 72
8
 73
4
 74
0
 40
0
 40
0
 40
0
 40
0
 40
1
 40
1
 40
1
 40
1
 10
70.044208
 20
15.853720
 30
0.0
 10
70.044205
 20
16.816734
 30
0.0
 10
68.292190
 20
17.713984
 30
0.0
 10
65.279123
 20
18.470750
 30
0.0
  0
LWPOLYLINE
  5
1aa
100
AcDbEntity
  8
Layer_1
 62
7
100
AcDbPolyline
 90
2
 70
0
 10
70.044208
 20
13.585776
 30
0.0
 10
70.044208
 20
15.853720
 30
0.0
  0
LWPOLYLINE
  5
1ab
100
AcDbEntity
  8
Layer_1
 62
7
100
AcDbPolyline
 90
1
 70
1
 10
65.279123
 20
18.470750
 30
0.0
  0
ENDSEC
  0
SECTION
  2
OBJECTS
  0
DICTIONARY
  5
C
330
0
100
AcDbDictionary
  3
ACAD_GROUP
350
D
  3
ACAD_MLINESTYLE
350
17
  0
DICTIONARY
  5
D
330
C
100
AcDbDictionary
  0
DICTIONARY
  5
1A
330
C
100
AcDbDictionary
  0
DICTIONARY
  5
17
330
C
100
AcDbDictionary
  3
STANDARD
350
18
  0
DICTIONARY
  5
19
330
C
100
AcDbDictionary
  0
ENDSEC
  0
EOF
